<svg id="Ebene_1" data-name="Ebene 1" xmlns="http://www.w3.org/2000/svg" xmlns:xlink="http://www.w3.org/1999/xlink" viewBox="0 0 382.51 253.27"><defs><filter id="blur_1_" x="0" y="0" width="200%" height="200%" name="blur_1_"><feOffset result="offOut" dx="20" dy="20" in="SourceGraphic"/><feColorMatrix result="matrixOut" values="0.2 0 0 0 0 0 0.2 0 0 0 0 0 0.2 0 0 0 0 0 1 0" in="offOut"/><feGaussianBlur result="blurOut" stdDeviation="10" in="matrixOut"/></filter></defs><g id="main-infografik"><g id="anim1"><g style="opacity:0.4;filter:url(#blur_1_)"><path d="M239.13,5.82,2.38,6.66A102.3,102.3,0,0,0-99.4,108.43a100.55,100.55,0,0,0,101.05,101l236.76-.84A102.29,102.29,0,0,0,340.18,106.87,100.55,100.55,0,0,0,239.13,5.82Z" style="fill:#fff;fill-rule:evenodd"/></g><path id="gemeinschaft" d="M253.65,12.54l-236.76.84A102.29,102.29,0,0,0-84.88,115.15a100.54,100.54,0,0,0,101.05,101l236.75-.84A102.27,102.27,0,0,0,354.69,113.59,100.54,100.54,0,0,0,253.65,12.54Z" style="fill:#fff;fill-rule:evenodd"/></g><g id="anim2"><g style="opacity:0.4;filter:url(#blur_1_)"><path d="M247.23,50.34l-126,.45A54.43,54.43,0,0,0,67.06,105a53.5,53.5,0,0,0,53.78,53.78l126-.45A54.43,54.43,0,0,0,301,104.12,53.5,53.5,0,0,0,247.23,50.34Z" style="fill:#fff;fill-rule:evenodd"/></g><path id="assekuradeur" d="M257.56,58.3l-126,.44a54.45,54.45,0,0,0-54.17,54.17,53.51,53.51,0,0,0,53.78,53.78l126-.45a54.43,54.43,0,0,0,54.16-54.16A53.5,53.5,0,0,0,257.56,58.3Z" style="fill:#fff;fill-rule:evenodd"/></g><g id="anim3"><g style="opacity:0.30000000000000004;filter:url(#blur_1_)"><path d="M124.42,51.86l-126,.45a54.45,54.45,0,0,0-54.17,54.17A53.53,53.53,0,0,0-2,160.26l126-.45a54.44,54.44,0,0,0,54.16-54.17A53.52,53.52,0,0,0,124.42,51.86Z" style="fill:#fff;fill-rule:evenodd"/></g><path id="services" d="M132.42,59.9l-126,.45a54.45,54.45,0,0,0-54.17,54.17A53.53,53.53,0,0,0,6,168.3l126-.45a54.44,54.44,0,0,0,54.16-54.17A53.52,53.52,0,0,0,132.42,59.9Z" style="fill:#fff;fill-rule:evenodd"/></g><path id="dot1" d="M137.72,125.3a16,16,0,1,0-22.66,0A16,16,0,0,0,137.72,125.3Z" style="fill:#95b522;fill-rule:evenodd"/><path id="dot2" d="M11.37,126a16.09,16.09,0,0,0,0-22.74,16.07,16.07,0,0,0-22.73,0,16.07,16.07,0,0,0,0,22.72A16.1,16.1,0,0,0,11.37,126Z" style="fill:#9d9d9c;fill-rule:evenodd"/><path id="dot3" d="M270.17,123.82a16,16,0,1,0-22.67,0A16,16,0,0,0,270.17,123.82Z" style="fill:#007899;fill-rule:evenodd"/></g></svg>