<svg id="Ebene_1" data-name="Ebene 1" xmlns="http://www.w3.org/2000/svg" xmlns:xlink="http://www.w3.org/1999/xlink" viewBox="0 0 500.05 253.27"><defs><filter id="blur_1_" x="0" y="0" width="200%" height="200%" name="blur_1_"><feOffset result="offOut" dx="20" dy="20" in="SourceGraphic"/><feColorMatrix result="matrixOut" values="0.2 0 0 0 0 0 0.2 0 0 0 0 0 0.2 0 0 0 0 0 1 0" in="offOut"/><feGaussianBlur result="blurOut" stdDeviation="10" in="matrixOut"/></filter></defs><g id="main-infografik"><g id="anim1"><g style="opacity:0.4;filter:url(#blur_1_)"><path d="M356.67,5.82l-236.75.84A102.29,102.29,0,0,0,18.15,108.43a100.54,100.54,0,0,0,101.05,101L356,208.64A102.29,102.29,0,0,0,457.72,106.87,100.54,100.54,0,0,0,356.67,5.82Z" style="fill:#fff;fill-rule:evenodd"/></g><path id="gemeinschaft" d="M371.19,12.54l-236.75.84A102.28,102.28,0,0,0,32.67,115.15a100.54,100.54,0,0,0,101,101l236.76-.84A102.29,102.29,0,0,0,472.24,113.59,100.55,100.55,0,0,0,371.19,12.54Z" style="fill:#fff;fill-rule:evenodd"/></g><g id="anim2"><g style="opacity:0.4;filter:url(#blur_1_)"><path d="M364.77,50.34l-126,.45A54.44,54.44,0,0,0,184.6,105a53.51,53.51,0,0,0,53.78,53.78l126-.45a54.42,54.42,0,0,0,54.16-54.16A53.5,53.5,0,0,0,364.77,50.34Z" style="fill:#fff;fill-rule:evenodd"/></g><path id="assekuradeur" d="M375.1,58.3l-126,.44a54.45,54.45,0,0,0-54.17,54.17,53.52,53.52,0,0,0,53.78,53.78l126-.45a54.43,54.43,0,0,0,54.16-54.16A53.5,53.5,0,0,0,375.1,58.3Z" style="fill:#fff;fill-rule:evenodd"/></g><g id="anim3"><g style="opacity:0.30000000000000004;filter:url(#blur_1_)"><path d="M242,51.86l-126,.45A54.44,54.44,0,0,0,61.8,106.48a53.52,53.52,0,0,0,53.78,53.78l126-.45a54.45,54.45,0,0,0,54.17-54.17A53.53,53.53,0,0,0,242,51.86Z" style="fill:#fff;fill-rule:evenodd"/></g><path id="services" d="M250,59.9l-126,.45A54.44,54.44,0,0,0,69.8,114.52a53.52,53.52,0,0,0,53.78,53.78l126-.45a54.45,54.45,0,0,0,54.17-54.17A53.53,53.53,0,0,0,250,59.9Z" style="fill:#fff;fill-rule:evenodd"/></g><path d="M255.27,125.3a16,16,0,1,0-22.67,0A16,16,0,0,0,255.27,125.3Z" style="fill:#95b522;fill-rule:evenodd"/><path d="M255.27,125.3a16,16,0,1,0-22.67,0A16,16,0,0,0,255.27,125.3Z" style="fill:none;stroke:#95b522;stroke-miterlimit:8;stroke-width:2.25px"/><path d="M128.92,126a16.08,16.08,0,1,0-22.75,0A16.09,16.09,0,0,0,128.92,126Z" style="fill:#007899;fill-rule:evenodd"/><path d="M128.92,126a16.08,16.08,0,1,0-22.75,0A16.09,16.09,0,0,0,128.92,126Z" style="fill:none;stroke:#057a97;stroke-miterlimit:8;stroke-width:2.25px"/><path d="M387.71,123.82a16,16,0,1,0-22.66,0A16,16,0,0,0,387.71,123.82Z" style="fill:#9d9d9c;fill-rule:evenodd"/><path d="M387.71,123.82a16,16,0,1,0-22.66,0A16,16,0,0,0,387.71,123.82Z" style="fill:none;stroke:#9d9d9c;stroke-miterlimit:8;stroke-width:2.25px"/></g></svg>