<svg id="Ebene_1" data-name="Ebene 1" xmlns="http://www.w3.org/2000/svg" xmlns:xlink="http://www.w3.org/1999/xlink" viewBox="0 0 960 398"><defs><filter id="blur_1_" x="0" y="0" width="200%" height="200%" name="blur_1_"><feOffset result="offOut" dx="20" dy="20" in="SourceGraphic"/><feColorMatrix result="matrixOut" values="0.2 0 0 0 0 0 0.2 0 0 0 0 0 0.2 0 0 0 0 0 1 0" in="offOut"/><feGaussianBlur result="blurOut" stdDeviation="10" in="matrixOut"/></filter></defs><g id="infografik"><g id="anim1"><g style="opacity:0.4;filter:url(#blur_1_)"><path d="M298.49,38.83l-236.75.84A102.28,102.28,0,0,0-40,141.44,100.55,100.55,0,0,0,61,242.49l236.75-.85A102.29,102.29,0,0,0,399.54,139.87,100.54,100.54,0,0,0,298.49,38.83Z" style="fill:#fff;fill-rule:evenodd"/></g><path id="gemeinschaft" d="M313,45.55l-236.75.84A102.27,102.27,0,0,0-25.51,148.16a100.54,100.54,0,0,0,101,101.05l236.76-.85A102.29,102.29,0,0,0,414.06,146.59,100.54,100.54,0,0,0,313,45.55Z" style="fill:#fff;fill-rule:evenodd"/></g><g id="anim2"><g style="opacity:0.4;filter:url(#blur_1_)"><path d="M306.59,83.34l-126,.45A54.45,54.45,0,0,0,126.42,138a53.51,53.51,0,0,0,53.78,53.78l126-.44a54.44,54.44,0,0,0,54.16-54.17A53.5,53.5,0,0,0,306.59,83.34Z" style="fill:#fff;fill-rule:evenodd"/></g><path id="assekuradeur" d="M316.92,91.3l-126,.45a54.44,54.44,0,0,0-54.17,54.16,53.52,53.52,0,0,0,53.78,53.78l126-.45a54.42,54.42,0,0,0,54.16-54.16A53.5,53.5,0,0,0,316.92,91.3Z" style="fill:#fff;fill-rule:evenodd"/></g><g id="anim3"><g style="opacity:0.30000000000000004;filter:url(#blur_1_)"><path d="M183.79,84.87l-126,.44A54.44,54.44,0,0,0,3.62,139.48,53.5,53.5,0,0,0,57.4,193.26l126-.45a54.44,54.44,0,0,0,54.17-54.16A53.52,53.52,0,0,0,183.79,84.87Z" style="fill:#fff;fill-rule:evenodd"/></g><path id="services" d="M191.79,92.91l-126,.45a54.42,54.42,0,0,0-54.16,54.16A53.5,53.5,0,0,0,65.4,201.3l126-.45a54.44,54.44,0,0,0,54.17-54.16A53.52,53.52,0,0,0,191.79,92.91Z" style="fill:#fff;fill-rule:evenodd"/></g><path d="M197.09,158.3a16,16,0,1,0-22.67,0A16,16,0,0,0,197.09,158.3Z" style="fill:#95b522;fill-rule:evenodd"/><path d="M197.09,158.3a16,16,0,1,0-22.67,0A16,16,0,0,0,197.09,158.3Z" style="fill:none;stroke:#95b522;stroke-miterlimit:8;stroke-width:2.25px"/><path d="M70.74,159A16.08,16.08,0,1,0,48,159,16.09,16.09,0,0,0,70.74,159Z" style="fill:#007899;fill-rule:evenodd"/><path d="M70.74,159A16.08,16.08,0,1,0,48,159,16.09,16.09,0,0,0,70.74,159Z" style="fill:none;stroke:#057a97;stroke-miterlimit:8;stroke-width:2.25px"/><path d="M329.53,156.83a16,16,0,1,0-22.66,0A16,16,0,0,0,329.53,156.83Z" style="fill:#9d9d9c;fill-rule:evenodd"/><path d="M329.53,156.83a16,16,0,1,0-22.66,0A16,16,0,0,0,329.53,156.83Z" style="fill:none;stroke:#9d9d9c;stroke-miterlimit:8;stroke-width:2.25px"/></g><g id="anim8a"><line x1="404.96" y1="191.27" x2="442" y2="230.85" style="fill:#00b8ea"/><line x1="404.96" y1="191.27" x2="442" y2="230.85" style="fill:none;stroke:#a1aebd;stroke-linejoin:round;stroke-width:0.5px"/><line x1="441.96" y1="230.76" x2="730.8" y2="230.76" style="fill:#00b8ea"/><line x1="441.96" y1="230.76" x2="730.8" y2="230.76" style="fill:none;stroke:#a1aebd;stroke-linejoin:round;stroke-width:0.5px"/></g><g id="anim8b"><text transform="translate(478.52 223.92)" style="font-size:13.999990463256836px;fill:#057a97;font-family:IBMPlexSans-Light, IBM Plex Sans;font-weight:300"><tspan style="letter-spacing:-0.0020228808422639317em">P</tspan><tspan x="8.39" y="0" style="letter-spacing:0.003976007172725659em">l</tspan><tspan x="12.14" y="0">a</tspan><tspan x="19.52" y="0" style="letter-spacing:0.004045761684527863em">tt</tspan><tspan x="29.01" y="0" style="letter-spacing:0.002929689495692591em">fo</tspan><tspan x="41.12" y="0">rm</tspan></text><rect x="479.45" y="239.24" width="3.18" height="3.18" style="fill:#999"/><text transform="translate(489.17 244.8)" style="font-size:10.999990463256836px;font-family:IBMPlexSans-Light, IBM Plex Sans;font-weight:300"><tspan style="letter-spacing:-0.00195312669331524em">G</tspan><tspan x="7.5" y="0" style="letter-spacing:0.0020419051793750236em">e</tspan><tspan x="13.5" y="0">s</tspan><tspan x="18.74" y="0" style="letter-spacing:0.00292969003997286em">c</tspan><tspan x="24.23" y="0" style="letter-spacing:0.004083810358750047em">h</tspan><tspan x="30.47" y="0" style="letter-spacing:-0.0020419051793750236em">w</tspan><tspan x="38.72" y="0" style="letter-spacing:-0.003995031872690264em">i</tspan><tspan x="41.35" y="0" style="letter-spacing:0.003995031872690264em">n</tspan><tspan x="47.58" y="0" style="letter-spacing:0.005060373705407667em">d</tspan><tspan x="53.95" y="0" style="letter-spacing:-0.003995031872690264em">i</tspan><tspan x="56.58" y="0" style="letter-spacing:0.003995031872690264em">g</tspan><tspan x="62.45" y="0" style="letter-spacing:-0.00097656334665762em">k</tspan><tspan x="68.08" y="0" style="letter-spacing:0.00195312669331524em">e</tspan><tspan x="74.07" y="0" style="letter-spacing:-0.003995031872690264em">i</tspan><tspan x="76.7" y="0" style="letter-spacing:-0.0048828167332881em">t</tspan><tspan x="80.33" y="0" style="letter-spacing:0.00195312669331524em"> </tspan><tspan x="82.95" y="0" style="letter-spacing:0.005060373705407667em">d</tspan><tspan x="89.32" y="0" style="letter-spacing:0.003995031872690264em">u</tspan><tspan x="95.55" y="0" style="letter-spacing:-0.004971595219347884em">r</tspan><tspan x="99.43" y="0" style="letter-spacing:0.003018468526032644em">c</tspan><tspan x="104.92" y="0" style="letter-spacing:0.003995031872690264em">h</tspan><tspan x="111.15" y="0" style="letter-spacing:0.00008877848605978365em"> </tspan></text><text transform="translate(489.17 260.88)" style="font-size:10.999990463256836px;font-family:IBMPlexSans-Light, IBM Plex Sans;font-weight:300">A<tspan x="6.88" y="0" style="letter-spacing:0.005060373705407667em">u</tspan><tspan x="13.12" y="0" style="letter-spacing:-0.004971595219347884em">t</tspan><tspan x="16.75" y="0" style="letter-spacing:-0.003995031872690264em">o</tspan><tspan x="22.76" y="0">m</tspan><tspan x="32.39" y="0" style="letter-spacing:-0.003995031872690264em">a</tspan><tspan x="38.15" y="0" style="letter-spacing:-0.004971595219347884em">t</tspan><tspan x="41.78" y="0" style="letter-spacing:-0.003995031872690264em">i</tspan><tspan x="44.41" y="0">s</tspan><tspan x="49.65" y="0" style="letter-spacing:-0.003995031872690264em">i</tspan><tspan x="52.28" y="0" style="letter-spacing:0.0020419051793750236em">e</tspan><tspan x="58.28" y="0" style="letter-spacing:-0.003995031872690264em">r</tspan><tspan x="62.16" y="0" style="letter-spacing:0.005060373705407667em">un</tspan><tspan x="74.66" y="0">g</tspan></text><rect x="479.45" y="275.24" width="3.18" height="3.18" style="fill:#999"/><text transform="translate(489.17 280.8)" style="font-size:10.999990463256836px;font-family:IBMPlexSans-Light, IBM Plex Sans;font-weight:300;letter-spacing:0.005060373705407667em">E<tspan x="6.37" y="0" style="letter-spacing:-0.00195312669331524em">f</tspan><tspan x="9.75" y="0" style="letter-spacing:-0.003995031872690264em">fi</tspan><tspan x="15.71" y="0" style="letter-spacing:-0.0020419051793750236em">z</tspan><tspan x="20.59" y="0" style="letter-spacing:-0.003995031872690264em">i</tspan><tspan x="23.22" y="0" style="letter-spacing:0.0020419051793750236em">e</tspan><tspan x="29.22" y="0" style="letter-spacing:0.004971595219347884em">n</tspan><tspan x="35.46" y="0" style="letter-spacing:-0.00195312669331524em">z</tspan><tspan x="40.35" y="0" style="letter-spacing:0.00195312669331524em"> </tspan><tspan x="42.96" y="0" style="letter-spacing:-0.003995031872690264em">i</tspan><tspan x="45.59" y="0" style="letter-spacing:-0.00097656334665762em">m</tspan><tspan x="55.22" y="0" style="letter-spacing:0.0020419051793750236em"> </tspan><tspan x="57.84" y="0" style="letter-spacing:0.00097656334665762em">P</tspan><tspan x="64.46" y="0" style="letter-spacing:-0.003995031872690264em">or</tspan><tspan x="74.35" y="0" style="letter-spacing:-0.004971595219347884em">t</tspan><tspan x="77.98" y="0" style="letter-spacing:-0.00195312669331524em">f</tspan><tspan x="81.35" y="0" style="letter-spacing:-0.003995031872690264em">o</tspan><tspan x="87.36" y="0" style="letter-spacing:-0.0020419051793750236em">l</tspan><tspan x="90.24" y="0" style="letter-spacing:-0.003995031872690264em">io</tspan><tspan x="98.88" y="0" xml:space="preserve" style="letter-spacing:0.0020419051793750236em"> M</tspan><tspan x="110.36" y="0" style="letter-spacing:-0.003995031872690264em">a</tspan><tspan x="116.11" y="0">n</tspan><tspan x="122.36" y="0" style="letter-spacing:-0.003995031872690264em">a</tspan><tspan x="128.11" y="0" style="letter-spacing:0.004971595219347884em">g</tspan><tspan x="133.99" y="0" style="letter-spacing:0.0020419051793750236em">e</tspan><tspan x="139.98" y="0" style="letter-spacing:-0.00097656334665762em">m</tspan><tspan x="149.61" y="0" style="letter-spacing:0.0020419051793750236em">e</tspan><tspan x="155.6" y="0" style="letter-spacing:0.004971595219347884em">n</tspan><tspan x="161.85" y="0" style="letter-spacing:0.00008877848605978365em">t</tspan></text><rect x="479.45" y="295.16" width="3.18" height="3.18" style="fill:#999"/><text transform="translate(489.17 300.72)" style="font-size:10.999990463256836px;font-family:IBMPlexSans-Light, IBM Plex Sans;font-weight:300">A<tspan x="6.88" y="0" style="letter-spacing:0.005060373705407667em">u</tspan><tspan x="13.12" y="0" style="letter-spacing:-0.004971595219347884em">t</tspan><tspan x="16.75" y="0" style="letter-spacing:-0.003995031872690264em">o</tspan><tspan x="22.76" y="0">m</tspan><tspan x="32.39" y="0" style="letter-spacing:-0.003995031872690264em">a</tspan><tspan x="38.15" y="0" style="letter-spacing:-0.004971595219347884em">t</tspan><tspan x="41.78" y="0" style="letter-spacing:-0.003995031872690264em">i</tspan><tspan x="44.41" y="0">s</tspan><tspan x="49.65" y="0" style="letter-spacing:-0.003995031872690264em">i</tspan><tspan x="52.28" y="0" style="letter-spacing:0.0020419051793750236em">e</tspan><tspan x="58.28" y="0" style="letter-spacing:-0.003995031872690264em">r</tspan><tspan x="62.16" y="0" style="letter-spacing:-0.004971595219347884em">t</tspan><tspan x="65.79" y="0" style="letter-spacing:0.0020419051793750236em">e</tspan><tspan x="71.79" y="0" style="letter-spacing:-0.00008877848605978365em">s</tspan><tspan x="77.03" y="0" xml:space="preserve" style="letter-spacing:0.0020419051793750236em"> U</tspan><tspan x="87.02" y="0" style="letter-spacing:0.005060373705407667em">nd</tspan><tspan x="99.64" y="0" style="letter-spacing:0.00195312669331524em">e</tspan><tspan x="105.63" y="0" style="letter-spacing:-0.00390625338663048em">r</tspan><tspan x="109.51" y="0" style="letter-spacing:-0.00097656334665762em">w</tspan><tspan x="117.78" y="0" style="letter-spacing:-0.003995031872690264em">ri</tspan><tspan x="124.29" y="0" style="letter-spacing:-0.004971595219347884em">t</tspan><tspan x="127.92" y="0" style="letter-spacing:-0.003995031872690264em">i</tspan><tspan x="130.55" y="0" style="letter-spacing:0.005060373705407667em">ng</tspan><tspan x="142.67" y="0" style="letter-spacing:0.00195312669331524em"> </tspan><tspan x="145.29" y="0" style="letter-spacing:0.005060373705407667em">und</tspan><tspan x="164.15" y="0"> </tspan></text><text transform="translate(489.17 315.84)" style="font-size:10.999990463256836px;font-family:IBMPlexSans-Light, IBM Plex Sans;font-weight:300">S<tspan x="6.25" y="0" style="letter-spacing:0.003995031872690264em">c</tspan><tspan x="11.75" y="0" style="letter-spacing:0.005060373705407667em">h</tspan><tspan x="18" y="0" style="letter-spacing:-0.004083810358750047em">a</tspan><tspan x="23.75" y="0" style="letter-spacing:0.005060373705407667em">d</tspan><tspan x="30.12" y="0" style="letter-spacing:0.0020419051793750236em">e</tspan><tspan x="36.11" y="0" style="letter-spacing:0.005060373705407667em">n</tspan><tspan x="42.36" y="0" style="letter-spacing:-0.003995031872690264em">a</tspan><tspan x="48.11" y="0" style="letter-spacing:0.005060373705407667em">b</tspan><tspan x="54.48" y="0" style="letter-spacing:-0.0010653418327174037em">w</tspan><tspan x="62.74" y="0" style="letter-spacing:-0.003995031872690264em">i</tspan><tspan x="65.37" y="0" style="letter-spacing:0.003995031872690264em">c</tspan><tspan x="70.87" y="0" style="letter-spacing:-0.00097656334665762em">k</tspan><tspan x="76.5" y="0" style="letter-spacing:-0.0020419051793750236em">l</tspan><tspan x="79.39" y="0" style="letter-spacing:0.005060373705407667em">un</tspan><tspan x="91.88" y="0">g</tspan></text><rect x="672.33" y="238.28" width="3.18" height="3.18" style="fill:#999"/><text transform="translate(682.05 243.84)" style="font-size:10.999990463256836px;font-family:IBMPlexSans-Light, IBM Plex Sans;font-weight:300"><tspan style="letter-spacing:0.003995031872690264em">D</tspan><tspan x="7.37" y="0" style="letter-spacing:-0.003995031872690264em">i</tspan><tspan x="10" y="0" style="letter-spacing:0.004971595219347884em">g</tspan><tspan x="15.87" y="0" style="letter-spacing:-0.003995031872690264em">i</tspan><tspan x="18.5" y="0" style="letter-spacing:-0.004971595219347884em">t</tspan><tspan x="22.13" y="0" style="letter-spacing:-0.003995031872690264em">a</tspan><tspan x="27.88" y="0" style="letter-spacing:-0.0020419051793750236em">l</tspan><tspan x="30.77" y="0" style="letter-spacing:0.0020419051793750236em">e </tspan><tspan x="39.38" y="0">A</tspan><tspan x="46.25" y="0" style="letter-spacing:0.005060373705407667em">u</tspan><tspan x="52.5" y="0">ss</tspan><tspan x="63" y="0" style="letter-spacing:0.00390625338663048em">c</tspan><tspan x="68.5" y="0" style="letter-spacing:0.005060373705407667em">h</tspan><tspan x="74.74" y="0" style="letter-spacing:-0.003995031872690264em">r</tspan><tspan x="78.63" y="0" style="letter-spacing:0.0020419051793750236em">e</tspan><tspan x="84.62" y="0" style="letter-spacing:-0.003995031872690264em">i</tspan><tspan x="87.25" y="0" style="letter-spacing:0.005060373705407667em">bung</tspan><tspan x="111.99" y="0" style="letter-spacing:0.00195312669331524em">e</tspan><tspan x="117.98" y="0" style="letter-spacing:0.00008877848605978365em">n</tspan></text><rect x="672.33" y="258.44" width="3.18" height="3.18" style="fill:#999"/><text transform="translate(682.05 264)" style="font-size:10.999990463256836px;font-family:IBMPlexSans-Light, IBM Plex Sans;font-weight:300"><tspan style="letter-spacing:-0.00195312669331524em">G</tspan><tspan x="7.5" y="0" style="letter-spacing:0.0020419051793750236em">e</tspan><tspan x="13.5" y="0" style="letter-spacing:-0.00097656334665762em">m</tspan><tspan x="23.12" y="0" style="letter-spacing:0.0020419051793750236em">e</tspan><tspan x="29.12" y="0" style="letter-spacing:-0.003995031872690264em">i</tspan><tspan x="31.75" y="0" style="letter-spacing:0.003995031872690264em">n</tspan><tspan x="37.98" y="0">s</tspan><tspan x="43.23" y="0" style="letter-spacing:-0.003995031872690264em">a</tspan><tspan x="48.98" y="0" style="letter-spacing:-0.00097656334665762em">m</tspan><tspan x="58.61" y="0" style="letter-spacing:0.0020419051793750236em">e</tspan><tspan x="64.6" y="0" style="letter-spacing:-0.005060373705407667em">r</tspan><tspan x="68.47" y="0" style="letter-spacing:0.0020419051793750236em"> </tspan><tspan x="71.09" y="0" style="letter-spacing:-0.00195312669331524em">Z</tspan><tspan x="77.34" y="0" style="letter-spacing:0.004083810358750047em">ug</tspan><tspan x="89.44" y="0" style="letter-spacing:-0.004971595219347884em">r</tspan><tspan x="93.31" y="0" style="letter-spacing:-0.003995031872690264em">i</tspan><tspan x="95.94" y="0" style="letter-spacing:-0.00195312669331524em">ff</tspan><tspan x="102.69" y="0" style="letter-spacing:0.0020419051793750236em"> </tspan><tspan x="105.31" y="0" style="letter-spacing:-0.003995031872690264em">a</tspan><tspan x="111.07" y="0" style="letter-spacing:0.003995031872690264em">u</tspan><tspan x="117.3" y="0" style="letter-spacing:-0.00195312669331524em">f</tspan><tspan x="120.68" y="0"> </tspan></text><text transform="translate(682.05 279.84)" style="font-size:10.999990463256836px;font-family:IBMPlexSans-Light, IBM Plex Sans;font-weight:300"><tspan style="letter-spacing:-0.00195312669331524em">G</tspan><tspan x="7.5" y="0" style="letter-spacing:0.0020419051793750236em">e</tspan><tspan x="13.5" y="0">s</tspan><tspan x="18.74" y="0" style="letter-spacing:0.00292969003997286em">c</tspan><tspan x="24.23" y="0" style="letter-spacing:0.004083810358750047em">h</tspan><tspan x="30.47" y="0" style="letter-spacing:-0.004971595219347884em">채</tspan><tspan x="36.22" y="0" style="letter-spacing:-0.00195312669331524em">f</tspan><tspan x="39.6" y="0" style="letter-spacing:-0.004971595219347884em">t</tspan><tspan x="43.23" y="0" style="letter-spacing:-0.00008877848605978365em">s</tspan><tspan x="48.48" y="0" style="letter-spacing:0.005060373705407667em">d</tspan><tspan x="54.84" y="0" style="letter-spacing:-0.003995031872690264em">a</tspan><tspan x="60.6" y="0" style="letter-spacing:-0.004971595219347884em">t</tspan><tspan x="64.23" y="0" style="letter-spacing:0.0020419051793750236em">e</tspan><tspan x="70.22" y="0" style="letter-spacing:0.004083810358750047em">n</tspan><tspan x="76.46" y="0" style="letter-spacing:0.00195312669331524em"> </tspan><tspan x="79.08" y="0" style="letter-spacing:-0.003018468526032644em">z</tspan><tspan x="83.95" y="0" style="letter-spacing:-0.00195312669331524em">w</tspan><tspan x="92.2" y="0" style="letter-spacing:-0.003995031872690264em">i</tspan><tspan x="94.83" y="0">s</tspan><tspan x="100.08" y="0" style="letter-spacing:0.003018468526032644em">c</tspan><tspan x="105.57" y="0" style="letter-spacing:0.003995031872690264em">h</tspan><tspan x="111.8" y="0" style="letter-spacing:0.0020419051793750236em">e</tspan><tspan x="117.8" y="0" style="letter-spacing:0.004083810358750047em">n</tspan><tspan x="124.03" y="0" style="letter-spacing:0.00195312669331524em"> </tspan><tspan x="126.65" y="0" style="letter-spacing:0.00097656334665762em">P</tspan><tspan x="133.27" y="0" style="letter-spacing:-0.003995031872690264em">a</tspan><tspan x="139.03" y="0" style="letter-spacing:-0.004971595219347884em">rt</tspan><tspan x="146.53" y="0" style="letter-spacing:0.004083810358750047em">n</tspan><tspan x="152.77" y="0" style="letter-spacing:0.00195312669331524em">e</tspan><tspan x="158.76" y="0" style="letter-spacing:-0.004971595219347884em">r</tspan><tspan x="162.63" y="0" style="letter-spacing:0.00008877848605978365em">n</tspan></text><rect x="672.33" y="293.48" width="3.18" height="3.18" style="fill:#999"/><text transform="translate(682.05 299.04)" style="font-size:10.999990463256836px;font-family:IBMPlexSans-Light, IBM Plex Sans;font-weight:300"><tspan style="letter-spacing:-0.003018468526032644em">V</tspan><tspan x="6.5" y="0" style="letter-spacing:0.0020419051793750236em">e</tspan><tspan x="12.5" y="0" style="letter-spacing:-0.004971595219347884em">rtr</tspan><tspan x="23.87" y="0" style="letter-spacing:-0.004083810358750047em">a</tspan><tspan x="29.62" y="0" style="letter-spacing:0.004083810358750047em">u</tspan><tspan x="35.86" y="0" style="letter-spacing:0.0020419051793750236em">e</tspan><tspan x="41.85" y="0" style="letter-spacing:0.003995031872690264em">n</tspan><tspan x="48.09" y="0">sv</tspan><tspan x="58.57" y="0" style="letter-spacing:-0.003995031872690264em">o</tspan><tspan x="64.58" y="0" style="letter-spacing:-0.0020419051793750236em">ll</tspan><tspan x="70.34" y="0" style="letter-spacing:0.0020419051793750236em">e </tspan><tspan x="78.96" y="0" style="letter-spacing:-0.0020419051793750236em">Z</tspan><tspan x="85.2" y="0" style="letter-spacing:0.004083810358750047em">u</tspan><tspan x="91.44" y="0">s</tspan><tspan x="96.69" y="0" style="letter-spacing:-0.003995031872690264em">a</tspan><tspan x="102.44" y="0" style="letter-spacing:-0.00097656334665762em">mm</tspan><tspan x="121.69" y="0" style="letter-spacing:0.0020419051793750236em">e</tspan><tspan x="127.69" y="0" style="letter-spacing:0.004083810358750047em">n</tspan><tspan x="133.92" y="0" style="letter-spacing:-0.003995031872690264em">a</tspan><tspan x="139.68" y="0" style="letter-spacing:-0.004971595219347884em">r</tspan><tspan x="143.55" y="0" style="letter-spacing:0.004971595219347884em">b</tspan><tspan x="149.92" y="0" style="letter-spacing:0.0020419051793750236em">e</tspan><tspan x="155.91" y="0" style="letter-spacing:-0.003995031872690264em">i</tspan><tspan x="158.54" y="0" style="letter-spacing:-0.004971595219347884em">t</tspan><tspan x="162.17" y="0" style="letter-spacing:0.0020419051793750236em"> </tspan><tspan x="164.79" y="0" style="letter-spacing:-0.003995031872690264em">a</tspan><tspan x="170.54" y="0" style="letter-spacing:0.004083810358750047em">u</tspan><tspan x="176.78" y="0" style="letter-spacing:0.00292969003997286em">c</tspan><tspan x="182.27" y="0" style="letter-spacing:0.004083810358750047em">h</tspan><tspan x="188.5" y="0"> </tspan></text><text transform="translate(682.05 314.88)" style="font-size:10.999990463256836px;font-family:IBMPlexSans-Light, IBM Plex Sans;font-weight:300"><tspan style="letter-spacing:-0.003995031872690264em">i</tspan><tspan x="2.63" y="0" style="letter-spacing:0.005060373705407667em">n</tspan><tspan x="8.88" y="0" style="letter-spacing:0.0020419051793750236em"> </tspan><tspan x="11.5" y="0" style="letter-spacing:0.004971595219347884em">d</tspan><tspan x="17.86" y="0" style="letter-spacing:0.0020419051793750236em">e</tspan><tspan x="23.86" y="0" style="letter-spacing:-0.003995031872690264em">r</tspan><tspan x="27.74" y="0" style="letter-spacing:0.0020419051793750236em"> </tspan><tspan x="30.36" y="0" style="letter-spacing:0.003995031872690264em">D</tspan><tspan x="37.73" y="0" style="letter-spacing:-0.003995031872690264em">i</tspan><tspan x="40.36" y="0" style="letter-spacing:0.004971595219347884em">g</tspan><tspan x="46.23" y="0" style="letter-spacing:-0.003995031872690264em">i</tspan><tspan x="48.86" y="0" style="letter-spacing:-0.004971595219347884em">t</tspan><tspan x="52.49" y="0" style="letter-spacing:-0.003995031872690264em">a</tspan><tspan x="58.24" y="0" style="letter-spacing:-0.0020419051793750236em">l</tspan><tspan x="61.13" y="0" style="letter-spacing:-0.003995031872690264em">i</tspan><tspan x="63.75" y="0">s</tspan><tspan x="69" y="0" style="letter-spacing:-0.003995031872690264em">i</tspan><tspan x="71.63" y="0" style="letter-spacing:0.00195312669331524em">e</tspan><tspan x="77.63" y="0" style="letter-spacing:-0.00390625338663048em">r</tspan><tspan x="81.51" y="0" style="letter-spacing:0.004971595219347884em">un</tspan><tspan x="94" y="0">g</tspan></text></g><g id="text7"><text transform="translate(478.52 36.24)" style="font-size:23.999990463256836px;fill:#007899;font-family:IBMPlexSans-Light, IBM Plex Sans;font-weight:300">Au<tspan x="28.51" y="0" style="letter-spacing:-0.0010172530083866948em">f G</tspan><tspan x="57.93" y="0" style="letter-spacing:0.0020345060167733897em">r</tspan><tspan x="66.55" y="0">un</tspan><tspan x="93.57" y="0" style="letter-spacing:-0.000976562888051227em">d</tspan><tspan x="107.33" y="0" style="letter-spacing:0.000976562888051227em">l</tspan><tspan x="113.69" y="0" style="letter-spacing:-0.000976562888051227em">a</tspan><tspan x="126.31" y="0" style="letter-spacing:0.0020345060167733897em">g</tspan><tspan x="139.05" y="0" style="letter-spacing:-0.0010172530083866948em">e e</tspan><tspan x="170.71" y="0" style="letter-spacing:0.0010172530083866948em">i</tspan><tspan x="176.57" y="0">n</tspan><tspan x="190.08" y="0" style="letter-spacing:-0.0010172530083866948em">e</tspan><tspan x="203.08" y="0" style="letter-spacing:0.0019938158964379216em">s</tspan><tspan x="214.58" y="0"> </tspan></text><text transform="translate(478.52 70.32)" style="font-size:23.999990463256836px;fill:#007899;font-family:IBMPlexSans-Light, IBM Plex Sans;font-weight:300"><tspan style="letter-spacing:0.0020345060167733897em">g</tspan><tspan x="12.74" y="0" style="letter-spacing:-0.0010172530083866948em">e</tspan><tspan x="25.75" y="0">m</tspan><tspan x="46.78" y="0" style="letter-spacing:-0.0010172530083866948em">e</tspan><tspan x="59.78" y="0" style="letter-spacing:0.0019938158964379216em">i</tspan><tspan x="65.66" y="0">n</tspan><tspan x="79.17" y="0" style="letter-spacing:0.0020345060167733897em">s</tspan><tspan x="90.67" y="0">am</tspan><tspan x="124.34" y="0" style="letter-spacing:-0.0010172530083866948em">e</tspan><tspan x="137.35" y="0">n</tspan><tspan x="150.86" y="0" style="letter-spacing:-0.0010172530083866948em"> </tspan><tspan x="156.5" y="0" style="letter-spacing:0.0020345060167733897em">N</tspan><tspan x="173.37" y="0" style="letter-spacing:-0.0010172530083866948em">et</tspan><tspan x="194.4" y="0" style="letter-spacing:0.0019938158964379216em">z</tspan><tspan x="205.15" y="0" style="letter-spacing:-0.0010172530083866948em">we</tspan><tspan x="236.18" y="0" style="letter-spacing:0.0019938158964379216em">r</tspan><tspan x="244.8" y="0" style="letter-spacing:-0.0019938158964379216em">k</tspan><tspan x="257.06" y="0" style="letter-spacing:0.0020345060167733897em">s</tspan><tspan x="268.56" y="0"> </tspan></text><text transform="translate(478.52 105.36)" style="font-size:23.999990463256836px;fill:#007899;font-family:IBMPlexSans-Light, IBM Plex Sans;font-weight:300">un<tspan x="27.02" y="0" style="letter-spacing:-0.000976562888051227em">d e</tspan><tspan x="59.42" y="0" style="letter-spacing:0.000976562888051227em">i</tspan><tspan x="65.28" y="0">n</tspan><tspan x="78.79" y="0" style="letter-spacing:-0.000976562888051227em">e</tspan><tspan x="91.8" y="0" style="letter-spacing:0.0019938158964379216em">r</tspan><tspan x="100.41" y="0" xml:space="preserve" style="letter-spacing:-0.0010172530083866948em"> d</tspan><tspan x="119.81" y="0" style="letter-spacing:0.0010172530083866948em">i</tspan><tspan x="125.66" y="0" style="letter-spacing:0.0019938158964379216em">g</tspan><tspan x="138.41" y="0" style="letter-spacing:0.0010172530083866948em">i</tspan><tspan x="144.26" y="0" style="letter-spacing:-0.0010172530083866948em">ta</tspan><tspan x="164.9" y="0" style="letter-spacing:0.000976562888051227em">l</tspan><tspan x="171.26" y="0" style="letter-spacing:-0.0010172530083866948em">e</tspan><tspan x="184.27" y="0">n</tspan><tspan x="197.78" y="0" style="letter-spacing:-0.0010172530083866948em"> </tspan><tspan x="203.42" y="0" style="letter-spacing:-0.0019938158964379216em">P</tspan><tspan x="217.8" y="0" style="letter-spacing:0.0010172530083866948em">l</tspan><tspan x="224.16" y="0" style="letter-spacing:-0.000976562888051227em">attf</tspan><tspan x="260.2" y="0" style="letter-spacing:0.0020345060167733897em">or</tspan><tspan x="282.07" y="0" style="letter-spacing:-0.000976562888051227em">m</tspan><tspan x="303.07" y="0">.</tspan></text><text transform="translate(478.52 137.28)" style="font-size:13.999990463256836px;font-family:IBMPlexSans-Light, IBM Plex Sans;font-weight:300">M<tspan x="11.26" y="0" style="letter-spacing:-0.0020228808422639317em">i</tspan><tspan x="14.63" y="0" style="letter-spacing:0.004045761684527863em">t</tspan><tspan x="19.38" y="0" style="letter-spacing:-0.004045761684527863em"> </tspan><tspan x="22.62" y="0" style="letter-spacing:-0.0020228808422639317em">d</tspan><tspan x="30.63" y="0" style="letter-spacing:0.0010463176770330682em">e</tspan><tspan x="38.25" y="0">r</tspan><tspan x="43.25" y="0" style="letter-spacing:-0.003976007172725659em"> </tspan><tspan x="46.49" y="0">n</tspan><tspan x="54.38" y="0" style="letter-spacing:0.002929689495692591em">o</tspan><tspan x="62.12" y="0">r</tspan><tspan x="67.11" y="0" style="letter-spacing:0.004045761684527863em">t</tspan><tspan x="71.86" y="0">h</tspan><tspan x="79.74" y="0" style="letter-spacing:-0.0020228808422639317em">p</tspan><tspan x="87.75" y="0" style="letter-spacing:0.002999444007494795em">o</tspan><tspan x="95.49" y="0">r</tspan><tspan x="100.49" y="0" style="letter-spacing:0.003976007172725659em">t</tspan><tspan x="105.24" y="0" style="letter-spacing:-0.003976007172725659em"> </tspan><tspan x="108.48" y="0" style="letter-spacing:-0.0020228808422639317em">P</tspan><tspan x="116.87" y="0" style="letter-spacing:0.002999444007494795em">l</tspan><tspan x="120.61" y="0">a</tspan><tspan x="127.99" y="0" style="letter-spacing:0.004045761684527863em">tt</tspan><tspan x="137.48" y="0" style="letter-spacing:0.002929689495692591em">fo</tspan><tspan x="149.59" y="0">r</tspan><tspan x="154.58" y="0" style="letter-spacing:-0.0009765631652308637em">m</tspan><tspan x="166.83" y="0" style="letter-spacing:-0.004045761684527863em"> </tspan><tspan x="170.08" y="0" style="letter-spacing:0.0010463176770330682em">e</tspan><tspan x="177.7" y="0" style="letter-spacing:0.004045761684527863em">t</tspan><tspan x="182.44" y="0">a</tspan><tspan x="189.82" y="0" style="letter-spacing:-0.0020228808422639317em">b</tspan><tspan x="197.83" y="0" style="letter-spacing:0.002929689495692591em">l</tspan><tspan x="201.57" y="0" style="letter-spacing:-0.0020228808422639317em">i</tspan><tspan x="204.94" y="0" style="letter-spacing:0.0010463176770330682em">e</tspan><tspan x="212.56" y="0">r</tspan><tspan x="217.56" y="0" style="letter-spacing:0.0010463176770330682em">e</tspan><tspan x="225.17" y="0">n</tspan><tspan x="233.05" y="0" style="letter-spacing:-0.003976007172725659em"> </tspan><tspan x="236.3" y="0" style="letter-spacing:-0.0020228808422639317em">wi</tspan><tspan x="250.17" y="0">r</tspan><tspan x="255.17" y="0" style="letter-spacing:-0.003976007172725659em"> </tspan><tspan x="258.42" y="0" style="letter-spacing:0.0010463176770330682em">e</tspan><tspan x="266.04" y="0" style="letter-spacing:-0.0020228808422639317em">i</tspan><tspan x="269.41" y="0">n</tspan><tspan x="277.29" y="0" style="letter-spacing:-0.003976007172725659em"> </tspan><tspan x="280.54" y="0" style="letter-spacing:-0.0020228808422639317em">digi</tspan><tspan x="302.67" y="0" style="letter-spacing:0.004045761684527863em">t</tspan><tspan x="307.42" y="0">a</tspan><tspan x="314.8" y="0" style="letter-spacing:0.002999444007494795em">l</tspan><tspan x="318.54" y="0" style="letter-spacing:0.0009765631652308637em">e</tspan><tspan x="326.15" y="0" style="letter-spacing:-0.002929689495692591em">s</tspan><tspan x="332.79" y="0" style="letter-spacing:-0.004045761684527863em"> </tspan><tspan x="336.04" y="0" style="letter-spacing:0.004045761684527863em">N</tspan><tspan x="345.91" y="0" style="letter-spacing:0.0010463176770330682em">e</tspan><tspan x="353.52" y="0" style="letter-spacing:0.004045761684527863em">t</tspan><tspan x="358.27" y="0" style="letter-spacing:-0.00006975451180220454em">z</tspan><tspan x="364.51" y="0" style="letter-spacing:-0.0020228808422639317em">w</tspan><tspan x="375.01" y="0" style="letter-spacing:0.0010463176770330682em">e</tspan><tspan x="382.63" y="0">r</tspan><tspan x="387.63" y="0" style="letter-spacing:-0.003976007172725659em">k</tspan><tspan x="394.75" y="0"> </tspan></text><text transform="translate(478.52 157.44)" style="font-size:13.999990463256836px;font-family:IBMPlexSans-Light, IBM Plex Sans;font-weight:300">z<tspan x="6.24" y="0" style="letter-spacing:-0.0020228808422639317em">w</tspan><tspan x="16.74" y="0" style="letter-spacing:-0.0010463176770330682em">i</tspan><tspan x="20.13" y="0" style="letter-spacing:-0.002999444007494795em">s</tspan><tspan x="26.77" y="0" style="letter-spacing:0.004045761684527863em">c</tspan><tspan x="33.77" y="0">h</tspan><tspan x="41.65" y="0" style="letter-spacing:0.0010463176770330682em">e</tspan><tspan x="49.27" y="0">n</tspan><tspan x="57.15" y="0" style="letter-spacing:-0.002999444007494795em"> </tspan><tspan x="60.41" y="0" style="letter-spacing:0.0020228808422639317em">I</tspan><tspan x="65.9" y="0" style="letter-spacing:-0.00006975451180220454em">n</tspan><tspan x="73.78" y="0" style="letter-spacing:-0.0019531263304617273em">d</tspan><tspan x="81.79" y="0">u</tspan><tspan x="89.67" y="0" style="letter-spacing:-0.002999444007494795em">s</tspan><tspan x="96.3" y="0" style="letter-spacing:0.003976007172725659em">t</tspan><tspan x="101.05" y="0">r</tspan><tspan x="106.05" y="0" style="letter-spacing:-0.0010463176770330682em">i</tspan><tspan x="109.44" y="0" style="letter-spacing:0.0010463176770330682em">e</tspan><tspan x="117.05" y="0" style="letter-spacing:-0.0020228808422639317em">v</tspan><tspan x="123.69" y="0" style="letter-spacing:0.0010463176770330682em">e</tspan><tspan x="131.3" y="0">r</tspan><tspan x="136.3" y="0" style="letter-spacing:-0.002999444007494795em">s</tspan><tspan x="142.94" y="0" style="letter-spacing:-0.0010463176770330682em">i</tspan><tspan x="146.33" y="0" style="letter-spacing:0.004045761684527863em">c</tspan><tspan x="153.33" y="0">h</tspan><tspan x="161.21" y="0" style="letter-spacing:0.0010463176770330682em">e</tspan><tspan x="168.82" y="0">r</tspan><tspan x="173.82" y="0" style="letter-spacing:0.0010463176770330682em">e</tspan><tspan x="181.44" y="0" style="letter-spacing:-0.00006975451180220454em">rn</tspan><tspan x="194.32" y="0" style="letter-spacing:-0.0009765631652308637em">,</tspan><tspan x="197.94" y="0" style="letter-spacing:-0.002929689495692591em"> </tspan><tspan x="201.21" y="0" style="letter-spacing:-0.00006975451180220454em">A</tspan><tspan x="209.95" y="0" style="letter-spacing:-0.002929689495692591em">ss</tspan><tspan x="223.23" y="0" style="letter-spacing:0.0009765631652308637em">e</tspan><tspan x="230.84" y="0" style="letter-spacing:-0.003976007172725659em">k</tspan><tspan x="237.97" y="0">ura</tspan><tspan x="258.23" y="0" style="letter-spacing:-0.0020228808422639317em">d</tspan><tspan x="266.23" y="0" style="letter-spacing:0.0010463176770330682em">e</tspan><tspan x="273.85" y="0">ur</tspan><tspan x="286.73" y="0" style="letter-spacing:0.0010463176770330682em">e</tspan><tspan x="294.35" y="0">n</tspan><tspan x="302.23" y="0" style="letter-spacing:-0.0010463176770330682em">,</tspan><tspan x="305.85" y="0" style="letter-spacing:-0.002929689495692591em"> </tspan><tspan x="309.12" y="0">Ma</tspan><tspan x="327.75" y="0" style="letter-spacing:-0.004045761684527863em">k</tspan><tspan x="334.87" y="0" style="letter-spacing:0.002999444007494795em">l</tspan><tspan x="338.61" y="0" style="letter-spacing:0.0010463176770330682em">e</tspan><tspan x="346.23" y="0" style="letter-spacing:-0.00006975451180220454em">rn</tspan><tspan x="359.11" y="0" style="letter-spacing:-0.002999444007494795em"> </tspan><tspan x="362.37" y="0">un</tspan><tspan x="378.13" y="0" style="letter-spacing:-0.0020228808422639317em">d</tspan><tspan x="386.14" y="0"> </tspan></text><text transform="translate(478.52 177.36)" style="font-size:13.999990463256836px;font-family:IBMPlexSans-Light, IBM Plex Sans;font-weight:300"><tspan style="letter-spacing:-0.0020228808422639317em">K</tspan><tspan x="8.51" y="0">un</tspan><tspan x="24.28" y="0" style="letter-spacing:-0.0020228808422639317em">d</tspan><tspan x="32.28" y="0" style="letter-spacing:0.0020228808422639317em">e</tspan><tspan x="39.91" y="0">n,</tspan><tspan x="51.43" y="0" style="letter-spacing:-0.002929689495692591em"> </tspan><tspan x="54.7" y="0" style="letter-spacing:-0.0010463176770330682em">i</tspan><tspan x="58.08" y="0">n</tspan><tspan x="65.97" y="0" style="letter-spacing:-0.002999444007494795em"> </tspan><tspan x="69.23" y="0" style="letter-spacing:-0.0020228808422639317em">d</tspan><tspan x="77.24" y="0" style="letter-spacing:0.0020228808422639317em">e</tspan><tspan x="84.87" y="0">m</tspan><tspan x="97.13" y="0" style="letter-spacing:-0.002999444007494795em"> </tspan><tspan x="100.39" y="0" style="letter-spacing:-0.0009765631652308637em">j</tspan><tspan x="103.78" y="0" style="letter-spacing:0.0020228808422639317em">e</tspan><tspan x="111.41" y="0" style="letter-spacing:-0.0020228808422639317em">d</tspan><tspan x="119.42" y="0" style="letter-spacing:0.0020228808422639317em">e</tspan><tspan x="127.05" y="0">r</tspan><tspan x="132.05" y="0" style="letter-spacing:-0.002999444007494795em"> </tspan><tspan x="135.31" y="0" style="letter-spacing:-0.0020228808422639317em">d</tspan><tspan x="143.32" y="0" style="letter-spacing:-0.0010463176770330682em">i</tspan><tspan x="146.7" y="0" style="letter-spacing:0.0020228808422639317em">e</tspan><tspan x="154.33" y="0" style="letter-spacing:-0.002999444007494795em"> </tspan><tspan x="157.59" y="0" style="letter-spacing:0.004045761684527863em">Ho</tspan><tspan x="175.22" y="0">h</tspan><tspan x="183.1" y="0" style="letter-spacing:0.0020228808422639317em">e</tspan><tspan x="190.73" y="0" style="letter-spacing:-0.0010463176770330682em">i</tspan><tspan x="194.12" y="0" style="letter-spacing:0.004045761684527863em">t</tspan><tspan x="198.87" y="0" style="letter-spacing:-0.002999444007494795em"> </tspan><tspan x="202.13" y="0">체</tspan><tspan x="210.01" y="0" style="letter-spacing:-0.0020228808422639317em">b</tspan><tspan x="218.02" y="0" style="letter-spacing:0.0020228808422639317em">e</tspan><tspan x="225.65" y="0">r</tspan><tspan x="230.65" y="0" xml:space="preserve" style="letter-spacing:-0.002999444007494795em"> s</tspan><tspan x="240.54" y="0" style="letter-spacing:0.0020228808422639317em">e</tspan><tspan x="248.17" y="0" style="letter-spacing:-0.0010463176770330682em">i</tspan><tspan x="251.56" y="0">n</tspan><tspan x="259.44" y="0" style="letter-spacing:-0.002999444007494795em"> </tspan><tspan x="262.71" y="0" style="letter-spacing:0.002999444007494795em">G</tspan><tspan x="272.32" y="0" style="letter-spacing:0.0020228808422639317em">e</tspan><tspan x="279.95" y="0" style="letter-spacing:-0.002999444007494795em">s</tspan><tspan x="286.59" y="0" style="letter-spacing:0.004045761684527863em">c</tspan><tspan x="293.59" y="0">h채</tspan><tspan x="308.86" y="0" style="letter-spacing:0.002999444007494795em">f</tspan><tspan x="313.23" y="0" style="letter-spacing:0.004045761684527863em">t</tspan><tspan x="317.98" y="0" style="letter-spacing:-0.002999444007494795em"> </tspan><tspan x="321.24" y="0" style="letter-spacing:-0.0020228808422639317em">b</tspan><tspan x="329.25" y="0" style="letter-spacing:0.0020228808422639317em">e</tspan><tspan x="336.88" y="0">h채</tspan><tspan x="352.15" y="0" style="letter-spacing:0.003976007172725659em">lt</tspan><tspan x="360.65" y="0">.</tspan></text></g></svg>