<svg id="Ebene_1" data-name="Ebene 1" xmlns="http://www.w3.org/2000/svg" xmlns:xlink="http://www.w3.org/1999/xlink" viewBox="0 0 960 398"><defs><filter id="blur_1_" x="0" y="0" width="200%" height="200%" name="blur_1_"><feOffset result="offOut" dx="20" dy="20" in="SourceGraphic"/><feColorMatrix result="matrixOut" values="0.2 0 0 0 0 0 0.2 0 0 0 0 0 0.2 0 0 0 0 0 1 0" in="offOut"/><feGaussianBlur result="blurOut" stdDeviation="10" in="matrixOut"/></filter></defs><g id="infografik"><g id="anim1"><g style="opacity:0.4;filter:url(#blur_1_)"><path d="M298.49,38.83l-236.75.84A102.28,102.28,0,0,0-40,141.44,100.55,100.55,0,0,0,61,242.49l236.75-.85A102.29,102.29,0,0,0,399.54,139.87,100.54,100.54,0,0,0,298.49,38.83Z" style="fill:#fff;fill-rule:evenodd"/></g><path id="gemeinschaft" d="M313,45.55l-236.75.84A102.27,102.27,0,0,0-25.51,148.16a100.54,100.54,0,0,0,101,101.05l236.76-.85A102.29,102.29,0,0,0,414.06,146.59,100.54,100.54,0,0,0,313,45.55Z" style="fill:#fff;fill-rule:evenodd"/></g><g id="anim2"><g style="opacity:0.4;filter:url(#blur_1_)"><path d="M306.59,83.34l-126,.45A54.45,54.45,0,0,0,126.42,138a53.51,53.51,0,0,0,53.78,53.78l126-.44a54.44,54.44,0,0,0,54.16-54.17A53.5,53.5,0,0,0,306.59,83.34Z" style="fill:#fff;fill-rule:evenodd"/></g><path id="assekuradeur" d="M316.92,91.3l-126,.45a54.44,54.44,0,0,0-54.17,54.16,53.52,53.52,0,0,0,53.78,53.78l126-.45a54.42,54.42,0,0,0,54.16-54.16A53.5,53.5,0,0,0,316.92,91.3Z" style="fill:#fff;fill-rule:evenodd"/></g><g id="anim3"><g style="opacity:0.30000000000000004;filter:url(#blur_1_)"><path d="M183.79,84.87l-126,.44A54.44,54.44,0,0,0,3.62,139.48,53.5,53.5,0,0,0,57.4,193.26l126-.45a54.44,54.44,0,0,0,54.17-54.16A53.52,53.52,0,0,0,183.79,84.87Z" style="fill:#fff;fill-rule:evenodd"/></g><path id="services" d="M191.79,92.91l-126,.45a54.42,54.42,0,0,0-54.16,54.16A53.5,53.5,0,0,0,65.4,201.3l126-.45a54.44,54.44,0,0,0,54.17-54.16A53.52,53.52,0,0,0,191.79,92.91Z" style="fill:#fff;fill-rule:evenodd"/></g><path d="M197.09,158.3a16,16,0,1,0-22.67,0A16,16,0,0,0,197.09,158.3Z" style="fill:#95b522;fill-rule:evenodd"/><path d="M197.09,158.3a16,16,0,1,0-22.67,0A16,16,0,0,0,197.09,158.3Z" style="fill:none;stroke:#95b522;stroke-miterlimit:8;stroke-width:2.25px"/><path d="M70.74,159A16.08,16.08,0,1,0,48,159,16.09,16.09,0,0,0,70.74,159Z" style="fill:#007899;fill-rule:evenodd"/><path d="M70.74,159A16.08,16.08,0,1,0,48,159,16.09,16.09,0,0,0,70.74,159Z" style="fill:none;stroke:#057a97;stroke-miterlimit:8;stroke-width:2.25px"/><path d="M329.53,156.83a16,16,0,1,0-22.66,0A16,16,0,0,0,329.53,156.83Z" style="fill:#9d9d9c;fill-rule:evenodd"/><path d="M329.53,156.83a16,16,0,1,0-22.66,0A16,16,0,0,0,329.53,156.83Z" style="fill:none;stroke:#9d9d9c;stroke-miterlimit:8;stroke-width:2.25px"/></g><text transform="translate(478.52 35.52)" style="font-size:24px;fill:#007899;font-family:IBMPlexSans-Light, IBM Plex Sans;font-weight:300">Damit lösen wir die </text><text transform="translate(478.52 69.36)" style="font-size:24px;fill:#007899;font-family:IBMPlexSans-Light, IBM Plex Sans;font-weight:300"><tspan style="letter-spacing:0.0009765625em">z</tspan><tspan x="10.73" y="0" style="letter-spacing:-0.0019938151041666665em">w</tspan><tspan x="28.73" y="0" style="letter-spacing:-0.0009765625em">e</tspan><tspan x="41.74" y="0" style="letter-spacing:0.0009765625em">i</tspan><tspan x="47.59" y="0" style="letter-spacing:-0.0019938151041666665em"> </tspan><tspan x="53.21" y="0" style="letter-spacing:0.0009765625em">H</tspan><tspan x="70.06" y="0" style="letter-spacing:-0.0010172526041666667em">e</tspan><tspan x="83.06" y="0" style="letter-spacing:0.0020345052083333335em">r</tspan><tspan x="91.68" y="0" style="letter-spacing:-0.0010172526041666667em">a</tspan><tspan x="104.3" y="0">u</tspan><tspan x="117.81" y="0" style="letter-spacing:0.0009765625em">s</tspan><tspan x="129.29" y="0" style="letter-spacing:-0.0019938151041666665em">f</tspan><tspan x="136.65" y="0" style="letter-spacing:0.0010172526041666667em">o</tspan><tspan x="149.88" y="0" style="letter-spacing:0.0019938151041666665em">r</tspan><tspan x="158.49" y="0" style="letter-spacing:-0.0009765625em">de</tspan><tspan x="185.25" y="0" style="letter-spacing:0.0019938151041666665em">r</tspan><tspan x="193.87" y="0">un</tspan><tspan x="220.89" y="0" style="letter-spacing:0.0010172526041666667em">g</tspan><tspan x="233.61" y="0" style="letter-spacing:-0.0009765625em">e</tspan><tspan x="246.62" y="0">n</tspan><tspan x="260.13" y="0" style="letter-spacing:-0.0020345052083333335em"> </tspan><tspan x="265.75" y="0" style="letter-spacing:-0.0009765625em">de</tspan><tspan x="292.51" y="0" style="letter-spacing:0.0019938151041666665em">r</tspan><tspan x="301.12" y="0" style="letter-spacing:-0.0020345052083333335em"> </tspan><tspan x="306.74" y="0" style="letter-spacing:-0.0029703776041666665em">B</tspan><tspan x="321.98" y="0" style="letter-spacing:0.0019938151041666665em">r</tspan><tspan x="330.59" y="0" style="letter-spacing:-0.0009765625em">a</tspan><tspan x="343.22" y="0">n</tspan><tspan x="356.73" y="0" style="letter-spacing:-0.0009765625em">c</tspan><tspan x="368.61" y="0">h</tspan><tspan x="382.12" y="0" style="letter-spacing:-0.0010172526041666667em">e</tspan><tspan x="395.13" y="0" style="letter-spacing:0.000040690104166666664em">:</tspan></text><text transform="translate(478.52 104.4)" style="font-size:24px;fill:#007899;font-family:IBMPlexSans-Light, IBM Plex Sans;font-weight:300">D<tspan x="15.98" y="0" style="letter-spacing:0.0010172526041666667em">i</tspan><tspan x="21.84" y="0" style="letter-spacing:0.0019938151041666665em">g</tspan><tspan x="34.58" y="0" style="letter-spacing:0.0010172526041666667em">i</tspan><tspan x="40.44" y="0" style="letter-spacing:-0.0010172526041666667em">ta</tspan><tspan x="61.08" y="0" style="letter-spacing:0.0009765625em">li</tspan><tspan x="73.29" y="0" style="letter-spacing:0.0019938151041666665em">s</tspan><tspan x="84.79" y="0" style="letter-spacing:0.0010172526041666667em">i</tspan><tspan x="90.65" y="0" style="letter-spacing:-0.0010172526041666667em">e</tspan><tspan x="103.65" y="0" style="letter-spacing:0.0020345052083333335em">r</tspan><tspan x="112.27" y="0">un</tspan><tspan x="139.29" y="0" style="letter-spacing:0.0019938151041666665em">g</tspan><tspan x="152.04" y="0" style="letter-spacing:-0.0010172526041666667em"> </tspan><tspan x="157.68" y="0">un</tspan><tspan x="184.7" y="0" style="letter-spacing:-0.0009765625em">d </tspan><tspan x="204.09" y="0">K</tspan><tspan x="218.73" y="0" style="letter-spacing:-0.0009765625em">apa</tspan><tspan x="257.73" y="0" style="letter-spacing:0.0009765625em">zi</tspan><tspan x="274.32" y="0" style="letter-spacing:-0.0010172526041666667em">t</tspan><tspan x="282.33" y="0" style="letter-spacing:-0.0019938151041666665em">ä</tspan><tspan x="294.96" y="0" style="letter-spacing:-0.0010172526041666667em">t</tspan><tspan x="302.97" y="0">.</tspan></text><text transform="translate(478.52 136.56)" style="font-size:13.999990463256836px;font-family:IBMPlexSans-Light, IBM Plex Sans;font-weight:300"><tspan style="letter-spacing:0.002999444007494795em">F</tspan><tspan x="7.74" y="0">ür</tspan><tspan x="20.62" y="0" style="letter-spacing:-0.003976007172725659em"> </tspan><tspan x="23.87" y="0" style="letter-spacing:0.0020228808422639317em">I</tspan><tspan x="29.36" y="0">n</tspan><tspan x="37.24" y="0" style="letter-spacing:-0.0020228808422639317em">d</tspan><tspan x="45.25" y="0">u</tspan><tspan x="53.13" y="0" style="letter-spacing:-0.002999444007494795em">s</tspan><tspan x="59.76" y="0" style="letter-spacing:0.004045761684527863em">t</tspan><tspan x="64.51" y="0">r</tspan><tspan x="69.51" y="0" style="letter-spacing:-0.0020228808422639317em">i</tspan><tspan x="72.88" y="0" style="letter-spacing:0.0009765631652308637em">e</tspan><tspan x="80.5" y="0" style="letter-spacing:-0.0009765631652308637em">m</tspan><tspan x="92.75" y="0">a</tspan><tspan x="100.13" y="0" style="letter-spacing:-0.003976007172725659em">k</tspan><tspan x="107.25" y="0" style="letter-spacing:0.002999444007494795em">l</tspan><tspan x="110.99" y="0" style="letter-spacing:0.0009765631652308637em">e</tspan><tspan x="118.61" y="0">r</tspan><tspan x="123.6" y="0" style="letter-spacing:-0.003976007172725659em"> </tspan><tspan x="126.85" y="0">un</tspan><tspan x="142.62" y="0" style="letter-spacing:-0.0020228808422639317em">d</tspan><tspan x="150.62" y="0" style="letter-spacing:-0.003976007172725659em"> </tspan><tspan x="153.87" y="0" style="letter-spacing:0.0020228808422639317em">I</tspan><tspan x="159.36" y="0">n</tspan><tspan x="167.24" y="0" style="letter-spacing:-0.0020228808422639317em">d</tspan><tspan x="175.25" y="0">u</tspan><tspan x="183.13" y="0" style="letter-spacing:-0.002999444007494795em">s</tspan><tspan x="189.77" y="0" style="letter-spacing:0.003976007172725659em">t</tspan><tspan x="194.51" y="0">r</tspan><tspan x="199.51" y="0" style="letter-spacing:-0.0020228808422639317em">i</tspan><tspan x="202.88" y="0" style="letter-spacing:0.0010463176770330682em">e</tspan><tspan x="210.5" y="0" style="letter-spacing:-0.0020228808422639317em">v</tspan><tspan x="217.14" y="0" style="letter-spacing:0.0010463176770330682em">e</tspan><tspan x="224.75" y="0">r</tspan><tspan x="229.75" y="0" style="letter-spacing:-0.002999444007494795em">s</tspan><tspan x="236.39" y="0" style="letter-spacing:-0.0020228808422639317em">i</tspan><tspan x="239.76" y="0" style="letter-spacing:0.002999444007494795em">c</tspan><tspan x="246.75" y="0">h</tspan><tspan x="254.63" y="0" style="letter-spacing:0.0010463176770330682em">e</tspan><tspan x="262.24" y="0">r</tspan><tspan x="267.24" y="0" style="letter-spacing:0.0010463176770330682em">e</tspan><tspan x="274.86" y="0" style="letter-spacing:-0.00006975451180220454em">r</tspan><tspan x="279.85" y="0" style="letter-spacing:-0.0009765631652308637em">,</tspan><tspan x="283.48" y="0" style="letter-spacing:-0.003976007172725659em"> </tspan><tspan x="286.73" y="0" style="letter-spacing:-0.0020228808422639317em">di</tspan><tspan x="298.11" y="0" style="letter-spacing:0.0010463176770330682em">e</tspan><tspan x="305.73" y="0" style="letter-spacing:-0.003976007172725659em"> </tspan><tspan x="308.97" y="0" style="letter-spacing:-0.0020228808422639317em">i</tspan><tspan x="312.35" y="0">hr </tspan></text><text transform="translate(478.52 156.48)" style="font-size:13.999990463256836px;font-family:IBMPlexSans-Light, IBM Plex Sans;font-weight:300"><tspan style="letter-spacing:0.004045761684527863em">V</tspan><tspan x="8.37" y="0" style="letter-spacing:0.0010463176770330682em">e</tspan><tspan x="15.99" y="0" style="letter-spacing:-0.00006975451180220454em">r</tspan><tspan x="20.99" y="0" style="letter-spacing:-0.002929689495692591em">s</tspan><tspan x="27.62" y="0" style="letter-spacing:-0.0010463176770330682em">i</tspan><tspan x="31.01" y="0" style="letter-spacing:0.004045761684527863em">c</tspan><tspan x="38.01" y="0">h</tspan><tspan x="45.89" y="0" style="letter-spacing:0.0009765631652308637em">e</tspan><tspan x="53.51" y="0">run</tspan><tspan x="74.27" y="0" style="letter-spacing:-0.0010463176770330682em">g</tspan><tspan x="81.66" y="0" style="letter-spacing:-0.002929689495692591em">s</tspan><tspan x="88.3" y="0" style="letter-spacing:-0.0010463176770330682em">g</tspan><tspan x="95.69" y="0" style="letter-spacing:0.0010463176770330682em">e</tspan><tspan x="103.3" y="0" style="letter-spacing:-0.002999444007494795em">s</tspan><tspan x="109.94" y="0" style="letter-spacing:0.003976007172725659em">c</tspan><tspan x="116.94" y="0">hä</tspan><tspan x="132.21" y="0" style="letter-spacing:0.002999444007494795em">f</tspan><tspan x="136.58" y="0" style="letter-spacing:0.003976007172725659em">t</tspan><tspan x="141.33" y="0" style="letter-spacing:-0.002999444007494795em"> </tspan><tspan x="144.59" y="0" style="letter-spacing:-0.0009765631652308637em">i</tspan><tspan x="147.98" y="0">n</tspan><tspan x="155.86" y="0" style="letter-spacing:-0.002999444007494795em"> </tspan><tspan x="159.12" y="0" style="letter-spacing:0.0010463176770330682em">e</tspan><tspan x="166.74" y="0" style="letter-spacing:-0.0010463176770330682em">i</tspan><tspan x="170.13" y="0">n</tspan><tspan x="178.01" y="0" style="letter-spacing:0.0010463176770330682em">e</tspan><tspan x="185.62" y="0" style="letter-spacing:-0.00006975451180220454em">r</tspan><tspan x="190.62" y="0" style="letter-spacing:-0.002929689495692591em"> </tspan><tspan x="193.88" y="0" style="letter-spacing:-0.0020228808422639317em">d</tspan><tspan x="201.89" y="0" style="letter-spacing:-0.0010463176770330682em">igi</tspan><tspan x="216.06" y="0" style="letter-spacing:0.004045761684527863em">t</tspan><tspan x="220.8" y="0">a</tspan><tspan x="228.18" y="0" style="letter-spacing:0.003976007172725659em">l</tspan><tspan x="231.93" y="0" style="letter-spacing:0.0010463176770330682em">e</tspan><tspan x="239.55" y="0">n</tspan><tspan x="247.43" y="0" style="letter-spacing:-0.002999444007494795em"> </tspan><tspan x="250.69" y="0">W</tspan><tspan x="263.07" y="0" style="letter-spacing:0.0009765631652308637em">e</tspan><tspan x="270.68" y="0" style="letter-spacing:0.003976007172725659em">lt</tspan><tspan x="279.18" y="0" style="letter-spacing:-0.002999444007494795em"> </tspan><tspan x="282.44" y="0" style="letter-spacing:-0.0020228808422639317em">b</tspan><tspan x="290.45" y="0" style="letter-spacing:0.0010463176770330682em">e</tspan><tspan x="298.07" y="0" style="letter-spacing:0.004045761684527863em">t</tspan><tspan x="302.81" y="0">r</tspan><tspan x="307.81" y="0" style="letter-spacing:0.0010463176770330682em">e</tspan><tspan x="315.43" y="0" style="letter-spacing:-0.0010463176770330682em">i</tspan><tspan x="318.82" y="0" style="letter-spacing:-0.0020228808422639317em">b</tspan><tspan x="326.82" y="0" style="letter-spacing:0.0010463176770330682em">e</tspan><tspan x="334.44" y="0">n</tspan><tspan x="342.32" y="0" style="letter-spacing:-0.002999444007494795em"> </tspan><tspan x="345.58" y="0" style="letter-spacing:-0.0010463176770330682em">w</tspan><tspan x="356.1" y="0" style="letter-spacing:0.002999444007494795em">o</tspan><tspan x="363.84" y="0" style="letter-spacing:0.003976007172725659em">ll</tspan><tspan x="371.34" y="0" style="letter-spacing:0.0009765631652308637em">e</tspan><tspan x="378.96" y="0">n.</tspan></text><text transform="translate(478.52 184.56)" style="font-size:13.999990463256836px;font-family:IBMPlexSans-Medium, IBM Plex Sans;font-weight:500">n<tspan x="8.12" y="0" style="letter-spacing:-0.0009765631652308637em">o</tspan><tspan x="16" y="0" style="letter-spacing:0.0009765631652308637em">rt</tspan><tspan x="26.5" y="0" style="letter-spacing:-0.00006975451180220454em">h</tspan><tspan x="34.62" y="0" style="letter-spacing:-0.0020228808422639317em">p</tspan><tspan x="42.88" y="0" style="letter-spacing:-0.0009765631652308637em">o</tspan><tspan x="50.76" y="0" style="letter-spacing:0.0009765631652308637em">rt</tspan><tspan x="61.26" y="0" style="letter-spacing:-0.002999444007494795em"> </tspan><tspan x="64.52" y="0" style="letter-spacing:-0.0019531263304617273em">b</tspan><tspan x="72.79" y="0" style="letter-spacing:0.002999444007494795em">i</tspan><tspan x="76.54" y="0" style="letter-spacing:-0.0020228808422639317em">e</tspan><tspan x="84.29" y="0" style="letter-spacing:0.0009765631652308637em">t</tspan><tspan x="89.42" y="0" style="letter-spacing:-0.0019531263304617273em">e</tspan><tspan x="97.17" y="0" style="letter-spacing:0.0009765631652308637em">t</tspan><tspan x="102.3" y="0" style="letter-spacing:-0.002929689495692591em"> </tspan><tspan x="105.56" y="0" style="letter-spacing:-0.004045761684527863em">L</tspan><tspan x="112.68" y="0" style="letter-spacing:-0.0009765631652308637em">ö</tspan><tspan x="120.57" y="0" style="letter-spacing:-0.0019531263304617273em">s</tspan><tspan x="127.45" y="0" style="letter-spacing:-0.00006975451180220454em">un</tspan><tspan x="143.69" y="0" style="letter-spacing:-0.0009765631652308637em">g</tspan><tspan x="151.2" y="0" style="letter-spacing:-0.0020228808422639317em">e</tspan><tspan x="158.95" y="0">n</tspan><tspan x="167.07" y="0" style="letter-spacing:-0.002999444007494795em"> </tspan><tspan x="170.33" y="0">fü</tspan><tspan x="183.21" y="0" style="letter-spacing:0.0009765631652308637em">r</tspan><tspan x="188.59" y="0">:</tspan></text><line x1="259.53" y1="200" x2="287.4" y2="229.79" style="fill:#00b8ea"/><line x1="259.53" y1="200" x2="287.4" y2="229.79" style="fill:none;stroke:#a1aebd;stroke-linejoin:round;stroke-width:0.5px"/><line x1="287.1" y1="229.84" x2="648.87" y2="229.84" style="fill:#00b8ea"/><line x1="287.1" y1="229.84" x2="648.87" y2="229.84" style="fill:none;stroke:#a1aebd;stroke-linejoin:round;stroke-width:0.5px"/><line x1="134.18" y1="200.7" x2="229.67" y2="302.75" style="fill:#00b8ea"/><line x1="134.18" y1="200.7" x2="229.67" y2="302.75" style="fill:none;stroke:#a1aebd;stroke-linejoin:round;stroke-width:0.5px"/><line x1="229.67" y1="303.02" x2="648.87" y2="303.02" style="fill:#00b8ea"/><line x1="229.67" y1="303.02" x2="648.87" y2="303.02" style="fill:none;stroke:#a1aebd;stroke-linejoin:round;stroke-width:0.5px"/><text transform="translate(478.52 222.96)" style="font-size:13.999990463256836px;fill:#057a97;font-family:IBMPlexSans-Light, IBM Plex Sans;font-weight:300"><tspan style="letter-spacing:0.002999444007494795em">D</tspan><tspan x="9.37" y="0" style="letter-spacing:-0.0020926353540661365em">igi</tspan><tspan x="23.49" y="0" style="letter-spacing:0.004045761684527863em">t</tspan><tspan x="28.24" y="0">a</tspan><tspan x="35.62" y="0" style="letter-spacing:0.002999444007494795em">l</tspan><tspan x="39.35" y="0" style="letter-spacing:-0.0020228808422639317em">i</tspan><tspan x="42.73" y="0" style="letter-spacing:-0.002999444007494795em">s</tspan><tspan x="49.36" y="0" style="letter-spacing:-0.0020228808422639317em">i</tspan><tspan x="52.74" y="0" style="letter-spacing:0.0009765631652308637em">e</tspan><tspan x="60.35" y="0">rung</tspan></text><rect x="479.45" y="238.28" width="3.18" height="3.18" style="fill:#999"/><text transform="translate(489.17 243.84)" style="font-size:10.999990463256836px;font-family:IBMPlexSans-Light, IBM Plex Sans;font-weight:300"><tspan style="letter-spacing:-0.003018468526032644em">I</tspan><tspan x="4.26" y="0" style="letter-spacing:0.005060373705407667em">nd</tspan><tspan x="16.87" y="0" style="letter-spacing:-0.003995031872690264em">i</tspan><tspan x="19.5" y="0" style="letter-spacing:0.00097656334665762em">v</tspan><tspan x="24.75" y="0" style="letter-spacing:-0.003995031872690264em">i</tspan><tspan x="27.38" y="0" style="letter-spacing:0.004971595219347884em">du</tspan><tspan x="40" y="0" style="letter-spacing:0.0020419051793750236em">e</tspan><tspan x="45.99" y="0" style="letter-spacing:-0.0020419051793750236em">ll</tspan><tspan x="51.75" y="0" style="letter-spacing:0.0020419051793750236em">e </tspan><tspan x="60.37" y="0" style="letter-spacing:0.004971595219347884em">d</tspan><tspan x="66.74" y="0" style="letter-spacing:-0.00390625338663048em">i</tspan><tspan x="69.37" y="0" style="letter-spacing:0.0048828167332881em">g</tspan><tspan x="75.24" y="0" style="letter-spacing:-0.003995031872690264em">i</tspan><tspan x="77.87" y="0" style="letter-spacing:-0.004971595219347884em">t</tspan><tspan x="81.5" y="0" style="letter-spacing:-0.003995031872690264em">a</tspan><tspan x="87.25" y="0" style="letter-spacing:-0.0020419051793750236em">l</tspan><tspan x="90.13" y="0" style="letter-spacing:0.0020419051793750236em">e </tspan><tspan x="98.75" y="0" style="letter-spacing:0.00097656334665762em">P</tspan><tspan x="105.37" y="0" style="letter-spacing:-0.003995031872690264em">ro</tspan><tspan x="115.26" y="0" style="letter-spacing:0.005060373705407667em">du</tspan><tspan x="127.87" y="0" style="letter-spacing:-0.00097656334665762em">k</tspan><tspan x="133.5" y="0" style="letter-spacing:-0.004971595219347884em">t</tspan><tspan x="137.13" y="0">e</tspan></text><rect x="479.45" y="258.44" width="3.18" height="3.18" style="fill:#999"/><text transform="translate(489.17 264)" style="font-size:10.999990463256836px;font-family:IBMPlexSans-Light, IBM Plex Sans;font-weight:300">R<tspan x="7" y="0" style="letter-spacing:0.0020419051793750236em">e</tspan><tspan x="12.99" y="0" style="letter-spacing:0.0048828167332881em">g</tspan><tspan x="18.86" y="0" style="letter-spacing:0.0020419051793750236em">e</tspan><tspan x="24.86" y="0" style="letter-spacing:-0.0020419051793750236em">l</tspan><tspan x="27.74" y="0" style="letter-spacing:0.005060373705407667em">b</tspan><tspan x="34.11" y="0" style="letter-spacing:-0.003995031872690264em">a</tspan><tspan x="39.86" y="0">s</tspan><tspan x="45.11" y="0" style="letter-spacing:-0.003995031872690264em">i</tspan><tspan x="47.74" y="0" style="letter-spacing:0.0020419051793750236em">e</tspan><tspan x="53.73" y="0" style="letter-spacing:-0.003995031872690264em">r</tspan><tspan x="57.62" y="0" style="letter-spacing:-0.004971595219347884em">t</tspan><tspan x="61.25" y="0" style="letter-spacing:0.0020419051793750236em">e</tspan><tspan x="67.24" y="0">s</tspan><tspan x="72.49" y="0" xml:space="preserve" style="letter-spacing:0.00195312669331524em"> U</tspan><tspan x="82.48" y="0" style="letter-spacing:0.005060373705407667em">nd</tspan><tspan x="95.09" y="0" style="letter-spacing:0.0020419051793750236em">e</tspan><tspan x="101.09" y="0" style="letter-spacing:-0.003995031872690264em">r</tspan><tspan x="104.97" y="0" style="letter-spacing:-0.0010653418327174037em">w</tspan><tspan x="113.23" y="0" style="letter-spacing:-0.003995031872690264em">ri</tspan><tspan x="119.74" y="0" style="letter-spacing:-0.004971595219347884em">t</tspan><tspan x="123.37" y="0" style="letter-spacing:-0.003995031872690264em">i</tspan><tspan x="126" y="0" style="letter-spacing:0.005060373705407667em">n</tspan><tspan x="132.25" y="0" style="letter-spacing:-0.00008877848605978365em">g</tspan></text><rect x="652.38" y="237.56" width="3.18" height="3.18" style="fill:#999"/><text transform="translate(662.1 243.12)" style="font-size:10.999990463256836px;font-family:IBMPlexSans-Light, IBM Plex Sans;font-weight:300;letter-spacing:0.005060373705407667em">End<tspan x="18.99" y="0" style="letter-spacing:-0.00097656334665762em">k</tspan><tspan x="24.62" y="0">und</tspan><tspan x="43.48" y="0" style="letter-spacing:0.00195312669331524em">e</tspan><tspan x="49.48" y="0">n</tspan><tspan x="55.72" y="0" style="letter-spacing:-0.0020419051793750236em">z</tspan><tspan x="60.61" y="0" style="letter-spacing:0.0020419051793750236em">e</tspan><tspan x="66.6" y="0">n</tspan><tspan x="72.85" y="0" style="letter-spacing:-0.004971595219347884em">t</tspan><tspan x="76.48" y="0" style="letter-spacing:-0.003995031872690264em">ri</tspan><tspan x="82.99" y="0" style="letter-spacing:0.0020419051793750236em">e</tspan><tspan x="88.99" y="0" style="letter-spacing:-0.003995031872690264em">r</tspan><tspan x="92.87" y="0">un</tspan><tspan x="105.37" y="0" style="letter-spacing:-0.00008877848605978365em">g</tspan></text><rect x="652.38" y="257.48" width="3.18" height="3.18" style="fill:#999"/><text transform="translate(662.1 263.04)" style="font-size:10.999990463256836px;font-family:IBMPlexSans-Light, IBM Plex Sans;font-weight:300"><tspan style="letter-spacing:0.003995031872690264em">D</tspan><tspan x="7.37" y="0" style="letter-spacing:-0.003995031872690264em">i</tspan><tspan x="10" y="0" style="letter-spacing:0.004971595219347884em">g</tspan><tspan x="15.87" y="0" style="letter-spacing:-0.003995031872690264em">i</tspan><tspan x="18.5" y="0" style="letter-spacing:-0.004971595219347884em">t</tspan><tspan x="22.13" y="0" style="letter-spacing:-0.003995031872690264em">a</tspan><tspan x="27.88" y="0" style="letter-spacing:-0.0020419051793750236em">l</tspan><tspan x="30.77" y="0" style="letter-spacing:0.0020419051793750236em">e </tspan><tspan x="39.38" y="0" style="letter-spacing:-0.003018468526032644em">I</tspan><tspan x="43.64" y="0" style="letter-spacing:0.005060373705407667em">nn</tspan><tspan x="56.13" y="0" style="letter-spacing:-0.003995031872690264em">o</tspan><tspan x="62.14" y="0" style="letter-spacing:0.00097656334665762em">v</tspan><tspan x="67.38" y="0" style="letter-spacing:-0.003995031872690264em">a</tspan><tspan x="73.14" y="0" style="letter-spacing:-0.004971595219347884em">t</tspan><tspan x="76.77" y="0" style="letter-spacing:-0.003995031872690264em">io</tspan><tspan x="85.4" y="0">n</tspan></text><text transform="translate(479.06 296.4)" style="font-size:13.999990463256836px;fill:#057a97;font-family:IBMPlexSans-Light, IBM Plex Sans;font-weight:300"><tspan style="letter-spacing:-0.0019531263304617273em">K</tspan><tspan x="8.51" y="0">a</tspan><tspan x="15.89" y="0" style="letter-spacing:-0.0020228808422639317em">p</tspan><tspan x="23.9" y="0" style="letter-spacing:-0.00006975451180220454em">az</tspan><tspan x="37.52" y="0" style="letter-spacing:-0.0009765631652308637em">i</tspan><tspan x="40.91" y="0" style="letter-spacing:0.003976007172725659em">t</tspan><tspan x="45.65" y="0" style="letter-spacing:0.00006975451180220454em">ät</tspan></text><rect x="479.99" y="311.96" width="3.18" height="3.18" style="fill:#999"/><text transform="translate(489.71 317.52)" style="font-size:10.999990463256836px;font-family:IBMPlexSans-Light, IBM Plex Sans;font-weight:300"><tspan style="letter-spacing:-0.00097656334665762em">B</tspan><tspan x="7.01" y="0" style="letter-spacing:-0.003995031872690264em">r</tspan><tspan x="10.89" y="0" style="letter-spacing:0.0020419051793750236em">e</tspan><tspan x="16.88" y="0" style="letter-spacing:-0.003995031872690264em">i</tspan><tspan x="19.51" y="0" style="letter-spacing:-0.004971595219347884em">t</tspan><tspan x="23.14" y="0" style="letter-spacing:0.0020419051793750236em">e</tspan><tspan x="29.14" y="0" style="letter-spacing:-0.003995031872690264em">r</tspan><tspan x="33.02" y="0" xml:space="preserve" style="letter-spacing:0.0020419051793750236em"> M</tspan><tspan x="44.5" y="0" style="letter-spacing:-0.003995031872690264em">ar</tspan><tspan x="54.14" y="0" style="letter-spacing:-0.00097656334665762em">k</tspan><tspan x="59.77" y="0" style="letter-spacing:-0.004971595219347884em">t</tspan><tspan x="63.4" y="0" style="letter-spacing:-0.00195312669331524em">z</tspan><tspan x="68.29" y="0" style="letter-spacing:0.004971595219347884em">ug</tspan><tspan x="80.41" y="0" style="letter-spacing:-0.003995031872690264em">a</tspan><tspan x="86.16" y="0" style="letter-spacing:0.005060373705407667em">n</tspan><tspan x="92.41" y="0">g</tspan></text><rect x="479.99" y="331.88" width="3.18" height="3.18" style="fill:#999"/><text transform="translate(489.71 337.44)" style="font-size:10.999990463256836px;font-family:IBMPlexSans-Light, IBM Plex Sans;font-weight:300">A<tspan x="6.88" y="0" style="letter-spacing:-0.004971595219347884em">tt</tspan><tspan x="14.13" y="0" style="letter-spacing:-0.003995031872690264em">ra</tspan><tspan x="23.77" y="0" style="letter-spacing:-0.00097656334665762em">k</tspan><tspan x="29.4" y="0" style="letter-spacing:-0.004971595219347884em">t</tspan><tspan x="33.03" y="0" style="letter-spacing:-0.003995031872690264em">i</tspan><tspan x="35.66" y="0" style="letter-spacing:0.00097656334665762em">v</tspan><tspan x="40.91" y="0" style="letter-spacing:0.0020419051793750236em">e </tspan><tspan x="49.52" y="0" style="letter-spacing:0.0008877848605978365em">P</tspan><tspan x="56.14" y="0" style="letter-spacing:-0.00390625338663048em">ro</tspan><tspan x="66.03" y="0" style="letter-spacing:0.004971595219347884em">du</tspan><tspan x="78.65" y="0" style="letter-spacing:-0.00097656334665762em">k</tspan><tspan x="84.28" y="0" style="letter-spacing:-0.004971595219347884em">t</tspan><tspan x="87.91" y="0">e</tspan></text><rect x="652.92" y="311" width="3.18" height="3.18" style="fill:#999"/><text transform="translate(662.64 316.56)" style="font-size:10.999990463256836px;font-family:IBMPlexSans-Light, IBM Plex Sans;font-weight:300">T<tspan x="6.25" y="0" style="letter-spacing:-0.003995031872690264em">ra</tspan><tspan x="15.88" y="0" style="letter-spacing:0.005060373705407667em">n</tspan><tspan x="22.13" y="0">s</tspan><tspan x="27.38" y="0" style="letter-spacing:0.004971595219347884em">p</tspan><tspan x="33.75" y="0" style="letter-spacing:-0.003995031872690264em">ar</tspan><tspan x="43.38" y="0" style="letter-spacing:0.0020419051793750236em">e</tspan><tspan x="49.38" y="0" style="letter-spacing:0.005060373705407667em">n</tspan><tspan x="55.63" y="0" style="letter-spacing:-0.004971595219347884em">t</tspan><tspan x="59.26" y="0" style="letter-spacing:0.0020419051793750236em">e </tspan><tspan x="67.87" y="0" style="letter-spacing:-0.00008877848605978365em">R</tspan><tspan x="74.86" y="0" style="letter-spacing:-0.003995031872690264em">i</tspan><tspan x="77.49" y="0">s</tspan><tspan x="82.74" y="0" style="letter-spacing:-0.003995031872690264em">i</tspan><tspan x="85.37" y="0" style="letter-spacing:-0.00097656334665762em">k</tspan><tspan x="91" y="0" style="letter-spacing:-0.003995031872690264em">o</tspan><tspan x="97.01" y="0" style="letter-spacing:0.005060373705407667em">p</tspan><tspan x="103.38" y="0" style="letter-spacing:-0.0020419051793750236em">l</tspan><tspan x="106.26" y="0" style="letter-spacing:-0.003995031872690264em">a</tspan><tspan x="112.01" y="0" style="letter-spacing:-0.004971595219347884em">t</tspan><tspan x="115.64" y="0" style="letter-spacing:-0.0020419051793750236em">z</tspan><tspan x="120.52" y="0" style="letter-spacing:-0.003995031872690264em">i</tspan><tspan x="123.15" y="0" style="letter-spacing:0.0020419051793750236em">e</tspan><tspan x="129.15" y="0" style="letter-spacing:-0.003995031872690264em">r</tspan><tspan x="133.03" y="0" style="letter-spacing:0.005060373705407667em">un</tspan><tspan x="145.53" y="0" style="letter-spacing:-0.00008877848605978365em">g</tspan></text><rect x="652.92" y="331.16" width="3.18" height="3.18" style="fill:#999"/><text transform="translate(662.64 336.72)" style="font-size:10.999990463256836px;font-family:IBMPlexSans-Light, IBM Plex Sans;font-weight:300"><tspan style="letter-spacing:0.003018468526032644em">H</tspan><tspan x="7.74" y="0" style="letter-spacing:-0.003995031872690264em">o</tspan><tspan x="13.75" y="0" style="letter-spacing:0.005060373705407667em">h</tspan><tspan x="20" y="0" style="letter-spacing:0.00195312669331524em">e</tspan><tspan x="25.99" y="0" style="letter-spacing:-0.003995031872690264em">r</tspan><tspan x="29.88" y="0" style="letter-spacing:0.0020419051793750236em"> </tspan><tspan x="32.49" y="0" style="letter-spacing:0.00097656334665762em">P</tspan><tspan x="39.12" y="0" style="letter-spacing:-0.003995031872690264em">ro</tspan><tspan x="49" y="0" style="letter-spacing:-0.0020419051793750236em">z</tspan><tspan x="53.89" y="0" style="letter-spacing:0.0020419051793750236em">e</tspan><tspan x="59.88" y="0">ss</tspan></text><text transform="translate(733.01 336.72)" style="font-size:10.999990463256836px;font-family:IBMPlexSans-Light, IBM Plex Sans;font-weight:300">-</text><text transform="translate(737.39 336.72)" style="font-size:10.999990463256836px;font-family:IBMPlexSans-Light, IBM Plex Sans;font-weight:300">S<tspan x="6.25" y="0" style="letter-spacing:0.0020419051793750236em">e</tspan><tspan x="12.24" y="0" style="letter-spacing:-0.003995031872690264em">r</tspan><tspan x="16.13" y="0" style="letter-spacing:0.00097656334665762em">v</tspan><tspan x="21.37" y="0" style="letter-spacing:-0.003995031872690264em">i</tspan><tspan x="24" y="0" style="letter-spacing:0.003995031872690264em">c</tspan><tspan x="29.5" y="0" style="letter-spacing:0.00195312669331524em">e</tspan><tspan x="35.5" y="0" style="letter-spacing:-0.00195312669331524em">l</tspan><tspan x="38.38" y="0" style="letter-spacing:0.00195312669331524em">e</tspan><tspan x="44.37" y="0" style="letter-spacing:0.00097656334665762em">v</tspan><tspan x="49.62" y="0" style="letter-spacing:0.0020419051793750236em">e</tspan><tspan x="55.62" y="0">l</tspan></text></svg>