<svg id="Ebene_1" data-name="Ebene 1" xmlns="http://www.w3.org/2000/svg" xmlns:xlink="http://www.w3.org/1999/xlink" viewBox="0 0 960 540"><defs><style>.cls-1{fill:none;}.cls-2{clip-path:url(#clip-path);}.cls-3{clip-path:url(#clip-path-2);}.cls-4{fill:#fff;}.cls-5{font-size:24px;fill:#007899;}.cls-12,.cls-28,.cls-31,.cls-42,.cls-49,.cls-5{font-family:IBMPlexSans-Light, IBM Plex Sans;font-weight:300;}.cls-6{letter-spacing:0em;}.cls-7{letter-spacing:0em;}.cls-8{letter-spacing:0em;}.cls-9{letter-spacing:0em;}.cls-10{letter-spacing:0em;}.cls-11{letter-spacing:0em;}.cls-12{font-size:14px;}.cls-13{letter-spacing:0em;}.cls-14{letter-spacing:0em;}.cls-15{letter-spacing:0em;}.cls-16{letter-spacing:0em;}.cls-17{letter-spacing:0em;}.cls-18{letter-spacing:0em;}.cls-19{letter-spacing:0em;}.cls-20{letter-spacing:0em;}.cls-21{letter-spacing:0em;}.cls-22{letter-spacing:0em;}.cls-23{letter-spacing:0em;}.cls-24{letter-spacing:0em;}.cls-25{letter-spacing:0em;}.cls-26{letter-spacing:0em;}.cls-27{fill:#f2f2f2;opacity:0.7;}.cls-28{font-size:12px;}.cls-29{letter-spacing:0em;}.cls-30{letter-spacing:0em;}.cls-31,.cls-42,.cls-49{font-size:11px;}.cls-32{letter-spacing:-0.04em;}.cls-33{letter-spacing:-0.02em;}.cls-34,.cls-42{letter-spacing:-0.02em;}.cls-35{letter-spacing:-0.02em;}.cls-36{letter-spacing:-0.03em;}.cls-37{letter-spacing:-0.03em;}.cls-38{letter-spacing:-0.01em;}.cls-39{letter-spacing:-0.02em;}.cls-40{letter-spacing:-0.03em;}.cls-41{letter-spacing:-0.02em;}.cls-43{letter-spacing:-0.01em;}.cls-44{letter-spacing:0em;}.cls-45{letter-spacing:-0.03em;}.cls-46{letter-spacing:-0.03em;}.cls-47{letter-spacing:-0.02em;}.cls-48{letter-spacing:-0.01em;}.cls-49{letter-spacing:-0.03em;}.cls-50{letter-spacing:-0.02em;}.cls-51{letter-spacing:0em;}</style><clipPath id="clip-path"><rect class="cls-1" width="960" height="540"/></clipPath><clipPath id="clip-path-2"><rect class="cls-1" width="959.76" height="540"/></clipPath></defs><g class="cls-2"><g class="cls-3"><rect class="cls-4" width="959.76" height="540"/></g><rect class="cls-4" width="960" height="540"/><text class="cls-5" transform="translate(65.41 289.92)">S<tspan class="cls-6" x="13.63" y="0">p</tspan><tspan class="cls-7" x="27.38" y="0">r</tspan><tspan class="cls-6" x="36" y="0">ec</tspan><tspan x="60.89" y="0">h</tspan><tspan class="cls-6" x="74.4" y="0">e</tspan><tspan x="87.41" y="0">n</tspan><tspan class="cls-8" x="100.92" y="0"> </tspan><tspan x="106.56" y="0">S</tspan><tspan class="cls-9" x="120.19" y="0">i</tspan><tspan class="cls-8" x="126.05" y="0">e m</tspan><tspan class="cls-10" x="165.69" y="0">i</tspan><tspan class="cls-8" x="171.55" y="0">t </tspan><tspan x="185.21" y="0">un</tspan><tspan class="cls-11" x="212.23" y="0">s</tspan><tspan x="223.72" y="0">!</tspan></text><text class="cls-12" transform="translate(65.41 328.08)">W<tspan class="cls-13" x="12.38" y="0">i</tspan><tspan x="15.75" y="0">r</tspan><tspan class="cls-14" x="20.75" y="0"> </tspan><tspan class="cls-15" x="24" y="0">f</tspan><tspan x="28.36" y="0">r</tspan><tspan class="cls-16" x="33.36" y="0">e</tspan><tspan x="40.98" y="0">u</tspan><tspan class="cls-16" x="48.86" y="0">e</tspan><tspan x="56.48" y="0">n</tspan><tspan class="cls-14" x="64.36" y="0"> </tspan><tspan x="67.6" y="0">un</tspan><tspan class="cls-17" x="83.37" y="0">s</tspan><tspan class="cls-18" x="89.99" y="0">,</tspan><tspan class="cls-17" x="93.62" y="0"> </tspan><tspan class="cls-18" x="96.86" y="0">m</tspan><tspan class="cls-13" x="109.11" y="0">i</tspan><tspan class="cls-15" x="112.49" y="0">t</tspan><tspan class="cls-17" x="117.22" y="0"> </tspan><tspan class="cls-19" x="120.47" y="0">I</tspan><tspan x="125.96" y="0">hn</tspan><tspan class="cls-16" x="141.72" y="0">e</tspan><tspan x="149.34" y="0">n</tspan><tspan class="cls-14" x="157.22" y="0"> </tspan><tspan x="160.46" y="0">ü</tspan><tspan class="cls-20" x="168.35" y="0">b</tspan><tspan class="cls-16" x="176.34" y="0">e</tspan><tspan x="183.96" y="0">r</tspan><tspan class="cls-17" x="188.96" y="0"> </tspan><tspan class="cls-21" x="192.2" y="0">I</tspan><tspan x="197.69" y="0">hr</tspan><tspan class="cls-16" x="210.57" y="0">e</tspan><tspan class="cls-17" x="218.19" y="0"> </tspan><tspan class="cls-22" x="221.43" y="0">D</tspan><tspan class="cls-16" x="230.8" y="0">e</tspan><tspan class="cls-23" x="238.42" y="0">c</tspan><tspan class="cls-14" x="245.4" y="0">k</tspan><tspan x="252.53" y="0">un</tspan><tspan class="cls-13" x="268.29" y="0">g</tspan><tspan class="cls-17" x="275.67" y="0">sk</tspan><tspan class="cls-15" x="289.42" y="0">o</tspan><tspan x="297.16" y="0">nz</tspan><tspan class="cls-16" x="311.28" y="0">e</tspan><tspan class="cls-20" x="318.9" y="0">p</tspan><tspan class="cls-15" x="326.89" y="0">t</tspan><tspan class="cls-16" x="331.63" y="0">e</tspan><tspan class="cls-17" x="339.24" y="0"> </tspan><tspan x="342.49" y="0">un</tspan><tspan class="cls-20" x="358.25" y="0">d</tspan><tspan x="366.25" y="0"> </tspan></text><text class="cls-12" transform="translate(65.41 353.04)"><tspan class="cls-13">d</tspan><tspan class="cls-24" x="8.01" y="0">i</tspan><tspan class="cls-13" x="11.4" y="0">g</tspan><tspan class="cls-18" x="18.77" y="0">i</tspan><tspan class="cls-25" x="22.16" y="0">t</tspan><tspan x="26.91" y="0">a</tspan><tspan class="cls-25" x="34.29" y="0">l</tspan><tspan class="cls-16" x="38.04" y="0">e</tspan><tspan x="45.65" y="0">n</tspan><tspan class="cls-20" x="53.54" y="0"> </tspan><tspan class="cls-15" x="56.8" y="0">I</tspan><tspan x="62.3" y="0">n</tspan><tspan class="cls-24" x="70.18" y="0">i</tspan><tspan class="cls-26" x="73.57" y="0">t</tspan><tspan class="cls-24" x="78.31" y="0">i</tspan><tspan x="81.7" y="0">a</tspan><tspan class="cls-26" x="89.08" y="0">t</tspan><tspan class="cls-18" x="93.83" y="0">i</tspan><tspan class="cls-13" x="97.21" y="0">v</tspan><tspan class="cls-16" x="103.85" y="0">e</tspan><tspan x="111.47" y="0">n</tspan><tspan class="cls-20" x="119.35" y="0"> </tspan><tspan x="122.61" y="0">au</tspan><tspan class="cls-20" x="137.87" y="0">s</tspan><tspan x="144.51" y="0">zu</tspan><tspan class="cls-25" x="158.63" y="0">t</tspan><tspan x="163.38" y="0">au</tspan><tspan class="cls-20" x="178.64" y="0">s</tspan><tspan class="cls-26" x="185.27" y="0">c</tspan><tspan x="192.27" y="0">h</tspan><tspan class="cls-16" x="200.15" y="0">e</tspan><tspan x="207.77" y="0">n.</tspan></text><ellipse class="cls-27" cx="100.83" cy="413.84" rx="41.06" ry="41.1"/><text class="cls-28" transform="translate(151.61 403.2)"><tspan class="cls-6">M</tspan><tspan class="cls-11" x="9.64" y="0">o</tspan><tspan x="16.26" y="0">n</tspan><tspan class="cls-29" x="23.02" y="0">i</tspan><tspan class="cls-30" x="25.9" y="0">ca</tspan><tspan x="38.27" y="0"> </tspan></text><text class="cls-28" transform="translate(192.73 403.2)">D<tspan class="cls-6" x="7.99" y="0">e</tspan><tspan x="14.5" y="0">nn</tspan><tspan class="cls-6" x="28.01" y="0">e</tspan><tspan class="cls-29" x="34.51" y="0">r</tspan><tspan x="38.76" y="0">t</tspan></text><text class="cls-31" transform="translate(151.61 423.12)"><tspan class="cls-32">G</tspan><tspan class="cls-33" x="7.13" y="0">e</tspan><tspan class="cls-34" x="12.88" y="0">s</tspan><tspan class="cls-35" x="17.89" y="0">c</tspan><tspan class="cls-36" x="23.14" y="0">h</tspan><tspan class="cls-37" x="29.02" y="0">ä</tspan><tspan class="cls-38" x="34.52" y="0">f</tspan><tspan class="cls-39" x="37.77" y="0">t</tspan><tspan class="cls-34" x="41.27" y="0">s</tspan><tspan class="cls-38" x="46.28" y="0">f</tspan><tspan class="cls-40" x="49.53" y="0">üh</tspan><tspan class="cls-41" x="61.28" y="0">r</tspan><tspan class="cls-36" x="65.03" y="0">un</tspan><tspan x="76.78" y="0">g</tspan></text><text class="cls-42" transform="translate(151.61 442.08)">T<tspan class="cls-33" x="6.01" y="0">e</tspan><tspan class="cls-43" x="11.76" y="0">l</tspan><tspan class="cls-44" x="14.52" y="0"> </tspan></text><text class="cls-31" transform="translate(168.61 442.08)">–</text><text class="cls-31" transform="translate(177.23 442.08)"><tspan class="cls-45">M</tspan><tspan class="cls-46" x="8.5" y="0">a</tspan><tspan class="cls-47" x="14" y="0">i</tspan><tspan class="cls-48" x="16.51" y="0">l</tspan><tspan x="19.26" y="0"> </tspan></text><text class="cls-31" transform="translate(198.98 442.08)">-</text><text class="cls-49" transform="translate(205.61 442.08)">L<tspan class="cls-41" x="5.13" y="0">i</tspan><tspan class="cls-36" x="7.62" y="0">n</tspan><tspan class="cls-50" x="13.5" y="0">k</tspan><tspan class="cls-33" x="18.88" y="0">e</tspan><tspan class="cls-37" x="24.63" y="0">d</tspan><tspan class="cls-47" x="30.63" y="0">I</tspan><tspan class="cls-51" x="34.76" y="0">n</tspan></text></g></svg>