<svg id="Ebene_1" data-name="Ebene 1" xmlns="http://www.w3.org/2000/svg" xmlns:xlink="http://www.w3.org/1999/xlink" viewBox="0 0 960 398"><defs><clipPath id="clip-path"><rect width="959.76" height="397.92" style="fill:none"/></clipPath><filter id="blur_1_" x="0" y="0" width="200%" height="200%" name="blur_1_"><feOffset result="offOut" dx="20" dy="20" in="SourceGraphic"/><feColorMatrix result="matrixOut" values="0.2 0 0 0 0 0 0.2 0 0 0 0 0 0.2 0 0 0 0 0 1 0" in="offOut"/><feGaussianBlur result="blurOut" stdDeviation="10" in="matrixOut"/></filter></defs><g style="clip-path:url(#clip-path)"><rect width="959.76" height="397.92" style="fill:#fff"/></g><rect width="960" height="398.25" style="fill:#fff"/><g id="anim1"><g style="opacity:0.4;filter:url(#blur_1_)"><path d="M298.49,38.83l-236.75.84A102.28,102.28,0,0,0-40,141.44,100.55,100.55,0,0,0,61,242.49l236.75-.85A102.29,102.29,0,0,0,399.54,139.87,100.54,100.54,0,0,0,298.49,38.83Z" style="fill:#fff;fill-rule:evenodd"/></g><path id="gemeinschaft" d="M313,45.55l-236.75.84A102.27,102.27,0,0,0-25.51,148.16a100.54,100.54,0,0,0,101,101.05l236.76-.85A102.29,102.29,0,0,0,414.06,146.59,100.54,100.54,0,0,0,313,45.55Z" style="fill:#fff;fill-rule:evenodd"/></g><g id="anim2"><g style="opacity:0.4;filter:url(#blur_1_)"><path d="M306.59,83.34l-126,.45A54.45,54.45,0,0,0,126.42,138a53.51,53.51,0,0,0,53.78,53.78l126-.44a54.44,54.44,0,0,0,54.16-54.17A53.5,53.5,0,0,0,306.59,83.34Z" style="fill:#fff;fill-rule:evenodd"/></g><path id="assekuradeur" d="M316.92,91.3l-126,.45a54.44,54.44,0,0,0-54.17,54.16,53.52,53.52,0,0,0,53.78,53.78l126-.45a54.42,54.42,0,0,0,54.16-54.16A53.5,53.5,0,0,0,316.92,91.3Z" style="fill:#fff;fill-rule:evenodd"/></g><g id="anim3"><g style="opacity:0.3;filter:url(#blur_1_)"><path d="M183.79,84.87l-126,.44A54.44,54.44,0,0,0,3.62,139.48,53.5,53.5,0,0,0,57.4,193.26l126-.45a54.44,54.44,0,0,0,54.17-54.16A53.52,53.52,0,0,0,183.79,84.87Z" style="fill:#fff;fill-rule:evenodd"/></g><path id="services" d="M191.79,92.91l-126,.45a54.42,54.42,0,0,0-54.16,54.16A53.5,53.5,0,0,0,65.4,201.3l126-.45a54.44,54.44,0,0,0,54.17-54.16A53.52,53.52,0,0,0,191.79,92.91Z" style="fill:#fff;fill-rule:evenodd"/></g><path d="M197.09,158.3a16,16,0,1,0-22.67,0A16,16,0,0,0,197.09,158.3Z" style="fill:#95b522;fill-rule:evenodd"/><path d="M197.09,158.3a16,16,0,1,0-22.67,0A16,16,0,0,0,197.09,158.3Z" style="fill:none;stroke:#95b522;stroke-miterlimit:8;stroke-width:2.25px"/><path d="M70.74,159A16.08,16.08,0,1,0,48,159,16.09,16.09,0,0,0,70.74,159Z" style="fill:#007899;fill-rule:evenodd"/><path d="M70.74,159A16.08,16.08,0,1,0,48,159,16.09,16.09,0,0,0,70.74,159Z" style="fill:none;stroke:#057a97;stroke-miterlimit:8;stroke-width:2.25px"/><g id="text"><text transform="translate(478.52 37.2)" style="font-size:24px;fill:#007899;font-family:IBMPlexSans-Light, IBM Plex Sans;font-weight:300">Individuelle Konzepte.<tspan x="0" y="34">Für Ihre Zielgruppe. </tspan></text><text transform="translate(478.52 103.2)" style="font-size:13.999990463256836px;font-family:IBMPlexSans-Light, IBM Plex Sans;font-weight:300"><tspan xml:space="preserve">Auf Basis unserer flexiblen Services bilden wir Geschäftsmodelle für  </tspan></text><text transform="translate(478.52 123.12)" style="font-size:13.999990463256836px;font-family:IBMPlexSans-Light, IBM Plex Sans;font-weight:300">alle Sparten des Industriegeschäfts ab:</text></g><g id="anim1b"><text transform="translate(478.52 170.16)" style="font-size:13.999990463256836px;fill:#9d9d9c;font-family:IBMPlexSans-Light, IBM Plex Sans;font-weight:300;letter-spacing:0.002999444007494795em">Gemeinschaft</text><text transform="translate(478.52 191.28)" style="font-size:10.999990463256836px;font-family:IBMPlexSans-Light, IBM Plex Sans;font-weight:300;letter-spacing:-0.0020419051793750236em">Langfristige Partnerschaft, Partizipative Organisation, Bündelung von Ressourcen </text><text transform="translate(478.52 207.36)" style="font-size:10.999990463256836px;font-family:IBMPlexSans-Light, IBM Plex Sans;font-weight:300;letter-spacing:0.005060373705407667em">und Kapazitäten</text></g><path d="M329.53,156.83a16,16,0,1,0-22.66,0A16,16,0,0,0,329.53,156.83Z" style="fill:#9d9d9c;fill-rule:evenodd"/><path d="M329.53,156.83a16,16,0,1,0-22.66,0A16,16,0,0,0,329.53,156.83Z" style="fill:none;stroke:#9d9d9c;stroke-miterlimit:8;stroke-width:2.25px"/><g id="anim1a"><line x1="318.47" y1="145.1" x2="348.09" y2="176.76" style="fill:#00b8ea"/><line x1="348.09" y1="176.58" x2="648.87" y2="176.58" style="fill:#00b8ea"/><line x1="318.47" y1="145.1" x2="348.09" y2="176.76" style="fill:none;stroke:#a1aebd;stroke-linejoin:round;stroke-width:0.5px"/><line x1="348.09" y1="176.58" x2="648.87" y2="176.58" style="fill:none;stroke:#a1aebd;stroke-linejoin:round;stroke-width:0.5px"/></g><g id="anim2b"><text transform="translate(478.52 248.88)" style="font-size:13.999990463256836px;fill:#95b522;font-family:IBMPlexSans-Light, IBM Plex Sans;font-weight:300">A<tspan x="8.75" y="0" style="letter-spacing:-0.002999444007494795em">ss</tspan><tspan x="22.02" y="0" style="letter-spacing:0.0010463176770330682em">e</tspan><tspan x="29.64" y="0" style="letter-spacing:-0.003976007172725659em">k</tspan><tspan x="36.76" y="0">ura</tspan><tspan x="57.02" y="0" style="letter-spacing:-0.0020228808422639317em">d</tspan><tspan x="65.03" y="0" style="letter-spacing:0.0009765631652308637em">e</tspan><tspan x="72.64" y="0">ur-</tspan><tspan x="91.08" y="0" style="letter-spacing:0.002999444007494795em">S</tspan><tspan x="99.08" y="0" style="letter-spacing:0.0010463176770330682em">e</tspan><tspan x="106.69" y="0">r</tspan><tspan x="111.69" y="0" style="letter-spacing:-0.0020228808422639317em">v</tspan><tspan x="118.33" y="0" style="letter-spacing:-0.0010463176770330682em">i</tspan><tspan x="121.71" y="0" style="letter-spacing:0.004045761684527863em">c</tspan><tspan x="128.71" y="0" style="letter-spacing:0.0010463176770330682em">e</tspan><tspan x="136.33" y="0">s</tspan></text><text transform="translate(478.52 269.76)" style="font-size:10.999990463256836px;font-family:IBMPlexSans-Light, IBM Plex Sans;font-weight:300">R<tspan x="7" y="0" style="letter-spacing:-0.003995031872690264em">i</tspan><tspan x="9.63" y="0">s</tspan><tspan x="14.87" y="0" style="letter-spacing:-0.003995031872690264em">i</tspan><tspan x="17.5" y="0" style="letter-spacing:-0.00097656334665762em">k</tspan><tspan x="23.13" y="0" style="letter-spacing:-0.003995031872690264em">oa</tspan><tspan x="34.89" y="0" style="letter-spacing:0.004971595219347884em">n</tspan><tspan x="41.14" y="0" style="letter-spacing:-0.003995031872690264em">a</tspan><tspan x="46.89" y="0" style="letter-spacing:-0.0020419051793750236em">l</tspan><tspan x="49.77" y="0" style="letter-spacing:-0.00097656334665762em">y</tspan><tspan x="55.03" y="0">s</tspan><tspan x="60.28" y="0" style="letter-spacing:0.0020419051793750236em">e </tspan><tspan x="68.89" y="0" style="letter-spacing:0.005060373705407667em">und</tspan><tspan x="87.76" y="0" style="letter-spacing:0.0020419051793750236em"> </tspan><tspan x="90.37" y="0">R</tspan><tspan x="97.37" y="0" style="letter-spacing:-0.003995031872690264em">i</tspan><tspan x="100" y="0" style="letter-spacing:-0.00008877848605978365em">s</tspan><tspan x="105.25" y="0" style="letter-spacing:-0.00390625338663048em">i</tspan><tspan x="107.88" y="0" style="letter-spacing:-0.0010653418327174037em">k</tspan><tspan x="113.51" y="0" style="letter-spacing:0.00008877848605978365em">om</tspan><tspan x="129.19" y="0" style="letter-spacing:-0.003018468526032644em">a</tspan><tspan x="134.96" y="0" style="letter-spacing:0.005060373705407667em">n</tspan><tspan x="141.2" y="0" style="letter-spacing:-0.003995031872690264em">a</tspan><tspan x="146.96" y="0" style="letter-spacing:0.004971595219347884em">g</tspan><tspan x="152.83" y="0" style="letter-spacing:0.00195312669331524em">e</tspan><tspan x="158.83" y="0" style="letter-spacing:0.00008877848605978365em">m</tspan><tspan x="168.46" y="0" style="letter-spacing:0.00195312669331524em">e</tspan><tspan x="174.46" y="0" style="letter-spacing:0.005060373705407667em">n</tspan><tspan x="180.7" y="0" style="letter-spacing:-0.004971595219347884em">t</tspan><tspan x="184.33" y="0" style="letter-spacing:0.00097656334665762em">,</tspan><tspan x="187.21" y="0" style="letter-spacing:0.0020419051793750236em"> </tspan><tspan x="189.82" y="0" style="letter-spacing:0.006036937052065288em">E</tspan><tspan x="196.2" y="0" style="letter-spacing:0.005060373705407667em">n</tspan><tspan x="202.45" y="0" style="letter-spacing:-0.004971595219347884em">t</tspan><tspan x="206.08" y="0" style="letter-spacing:-0.0020419051793750236em">w</tspan><tspan x="214.33" y="0" style="letter-spacing:-0.003018468526032644em">i</tspan><tspan x="216.97" y="0" style="letter-spacing:0.003995031872690264em">c</tspan><tspan x="222.47" y="0" style="letter-spacing:-0.00097656334665762em">k</tspan><tspan x="228.1" y="0" style="letter-spacing:-0.0020419051793750236em">l</tspan><tspan x="230.98" y="0" style="letter-spacing:0.005060373705407667em">ung</tspan><tspan x="249.35" y="0" style="letter-spacing:0.0020419051793750236em"> </tspan><tspan x="251.97" y="0" style="letter-spacing:0.00097656334665762em">v</tspan><tspan x="257.22" y="0" style="letter-spacing:-0.003995031872690264em">o</tspan><tspan x="263.22" y="0" style="letter-spacing:0.005060373705407667em">n</tspan><tspan x="269.47" y="0" xml:space="preserve" style="letter-spacing:0.00195312669331524em"> W</tspan><tspan x="281.84" y="0" style="letter-spacing:-0.003995031872690264em">o</tspan><tspan x="287.84" y="0" style="letter-spacing:-0.004971595219347884em">r</tspan><tspan x="291.71" y="0" style="letter-spacing:0.006036937052065288em">d</tspan><tspan x="298.09" y="0" style="letter-spacing:-0.003995031872690264em">i</tspan><tspan x="300.72" y="0" style="letter-spacing:0.005060373705407667em">ng</tspan><tspan x="312.84" y="0">s,</tspan><tspan x="320.95" y="0" style="letter-spacing:0.003018468526032644em"> </tspan><tspan x="323.58" y="0" style="letter-spacing:-0.00097656334665762em">B</tspan><tspan x="330.59" y="0" style="letter-spacing:0.003018468526032644em">e</tspan><tspan x="336.59" y="0" style="letter-spacing:0.006036937052065288em">d</tspan><tspan x="342.97" y="0" style="letter-spacing:-0.003995031872690264em">i</tspan><tspan x="345.6" y="0" style="letter-spacing:0.005060373705407667em">ngung</tspan><tspan x="376.09" y="0" style="letter-spacing:0.0020419051793750236em">e</tspan><tspan x="382.09" y="0" style="letter-spacing:0.005060373705407667em">n</tspan><tspan x="388.34" y="0">, </tspan></text><text transform="translate(478.52 285.84)" style="font-size:10.999990463256836px;font-family:IBMPlexSans-Light, IBM Plex Sans;font-weight:300"><tspan style="letter-spacing:0.003995031872690264em">D</tspan><tspan x="7.37" y="0" style="letter-spacing:0.0020419051793750236em">e</tspan><tspan x="13.37" y="0" style="letter-spacing:0.00292969003997286em">c</tspan><tspan x="18.85" y="0" style="letter-spacing:-0.00097656334665762em">k</tspan><tspan x="24.49" y="0" style="letter-spacing:0.005060373705407667em">ung</tspan><tspan x="42.86" y="0" style="letter-spacing:-0.00008877848605978365em">s</tspan><tspan x="48.1" y="0" style="letter-spacing:-0.00097656334665762em">m</tspan><tspan x="57.73" y="0" style="letter-spacing:-0.003995031872690264em">o</tspan><tspan x="63.73" y="0" style="letter-spacing:0.005060373705407667em">d</tspan><tspan x="70.1" y="0" style="letter-spacing:0.0020419051793750236em">e</tspan><tspan x="76.1" y="0" style="letter-spacing:-0.0020419051793750236em">ll</tspan><tspan x="81.86" y="0" style="letter-spacing:0.0020419051793750236em">e</tspan><tspan x="87.86" y="0" style="letter-spacing:0.005060373705407667em">n</tspan><tspan x="94.1" y="0" style="letter-spacing:0.00195312669331524em"> </tspan><tspan x="96.72" y="0" style="letter-spacing:0.005060373705407667em">und</tspan><tspan x="115.59" y="0" style="letter-spacing:0.00195312669331524em"> </tspan><tspan x="118.2" y="0">S</tspan><tspan x="124.45" y="0" style="letter-spacing:0.003018468526032644em">c</tspan><tspan x="129.94" y="0" style="letter-spacing:0.005060373705407667em">h</tspan><tspan x="136.19" y="0" style="letter-spacing:-0.003995031872690264em">a</tspan><tspan x="141.94" y="0" style="letter-spacing:0.004971595219347884em">d</tspan><tspan x="148.31" y="0" style="letter-spacing:0.0020419051793750236em">e</tspan><tspan x="154.3" y="0" style="letter-spacing:0.005060373705407667em">n</tspan><tspan x="160.55" y="0" style="letter-spacing:-0.00097656334665762em">m</tspan><tspan x="170.18" y="0" style="letter-spacing:-0.003995031872690264em">o</tspan><tspan x="176.18" y="0" style="letter-spacing:0.005060373705407667em">d</tspan><tspan x="182.55" y="0" style="letter-spacing:0.0020419051793750236em">e</tspan><tspan x="188.55" y="0" style="letter-spacing:-0.0020419051793750236em">ll</tspan><tspan x="194.31" y="0" style="letter-spacing:0.00195312669331524em">e</tspan><tspan x="200.31" y="0" style="letter-spacing:0.00008877848605978365em">n</tspan></text></g><g id="anim2a"><line x1="185.76" y1="147.47" x2="286.96" y2="255.62" style="fill:#00b8ea"/><line x1="185.76" y1="147.47" x2="286.96" y2="255.62" style="fill:none;stroke:#a1aebd;stroke-linejoin:round;stroke-width:0.5px"/><text transform="translate(598.02 269.76)" style="font-size:10.999990463256836px;font-family:IBMPlexSans-Light, IBM Plex Sans;font-weight:300">-</text><line x1="287.1" y1="255.49" x2="648.87" y2="255.49" style="fill:#00b8ea"/><line x1="287.1" y1="255.49" x2="648.87" y2="255.49" style="fill:none;stroke:#a1aebd;stroke-linejoin:round;stroke-width:0.5px"/></g><g id="anim3b"><text transform="translate(478.52 323.76)" style="font-size:13.999990463256836px;fill:#007899;font-family:IBMPlexSans-Light, IBM Plex Sans;font-weight:300"><tspan style="letter-spacing:0.002999444007494795em">Sof</tspan><tspan x="20.1" y="0" style="letter-spacing:0.004045761684527863em">t</tspan><tspan x="24.85" y="0" style="letter-spacing:-0.0010463176770330682em">w</tspan><tspan x="35.36" y="0">are-</tspan><tspan x="60.9" y="0" style="letter-spacing:0.002929689495692591em">S</tspan><tspan x="68.89" y="0" style="letter-spacing:0.0010463176770330682em">e</tspan><tspan x="76.51" y="0">r</tspan><tspan x="81.51" y="0" style="letter-spacing:-0.0020228808422639317em">v</tspan><tspan x="88.14" y="0" style="letter-spacing:-0.0010463176770330682em">i</tspan><tspan x="91.53" y="0" style="letter-spacing:0.004045761684527863em">c</tspan><tspan x="98.53" y="0" style="letter-spacing:0.0010463176770330682em">e</tspan><tspan x="106.15" y="0">s</tspan></text><text transform="translate(478.52 344.64)" style="font-size:10.999990463256836px;font-family:IBMPlexSans-Light, IBM Plex Sans;font-weight:300">A<tspan x="6.88" y="0" style="letter-spacing:0.005060373705407667em">u</tspan><tspan x="13.12" y="0" style="letter-spacing:-0.00195312669331524em">f</tspan><tspan x="16.5" y="0" style="letter-spacing:0.004971595219347884em">b</tspan><tspan x="22.87" y="0" style="letter-spacing:-0.003995031872690264em">a</tspan><tspan x="28.62" y="0" style="letter-spacing:0.005060373705407667em">u</tspan><tspan x="34.87" y="0" style="letter-spacing:0.0020419051793750236em"> </tspan><tspan x="37.49" y="0" style="letter-spacing:-0.0020419051793750236em">z</tspan><tspan x="42.37" y="0" style="letter-spacing:-0.003995031872690264em">i</tspan><tspan x="45" y="0" style="letter-spacing:0.0020419051793750236em">e</tspan><tspan x="51" y="0" style="letter-spacing:-0.0020419051793750236em">l</tspan><tspan x="53.88" y="0" style="letter-spacing:0.004971595219347884em">g</tspan><tspan x="59.75" y="0" style="letter-spacing:-0.003995031872690264em">r</tspan><tspan x="63.63" y="0" style="letter-spacing:0.005060373705407667em">upp</tspan><tspan x="82.62" y="0" style="letter-spacing:0.0020419051793750236em">e</tspan><tspan x="88.61" y="0" style="letter-spacing:0.005060373705407667em">n</tspan><tspan x="94.86" y="0" style="letter-spacing:-0.003995031872690264em">ori</tspan><tspan x="107.38" y="0" style="letter-spacing:0.0020419051793750236em">e</tspan><tspan x="113.38" y="0" style="letter-spacing:0.005060373705407667em">n</tspan><tspan x="119.62" y="0" style="letter-spacing:-0.004971595219347884em">t</tspan><tspan x="123.25" y="0" style="letter-spacing:-0.003995031872690264em">i</tspan><tspan x="125.88" y="0" style="letter-spacing:0.0020419051793750236em">e</tspan><tspan x="131.88" y="0" style="letter-spacing:-0.003995031872690264em">r</tspan><tspan x="135.76" y="0" style="letter-spacing:-0.004971595219347884em">t</tspan><tspan x="139.39" y="0" style="letter-spacing:0.0020419051793750236em">e</tspan><tspan x="145.38" y="0" style="letter-spacing:-0.003995031872690264em">r</tspan><tspan x="149.27" y="0" style="letter-spacing:0.0020419051793750236em"> </tspan><tspan x="151.89" y="0" style="letter-spacing:0.004971595219347884em">und</tspan><tspan x="170.75" y="0" style="letter-spacing:0.0020419051793750236em"> </tspan><tspan x="173.37" y="0" style="letter-spacing:0.004971595219347884em">p</tspan><tspan x="179.74" y="0" style="letter-spacing:-0.003995031872690264em">ro</tspan><tspan x="189.63" y="0" style="letter-spacing:-0.00195312669331524em">z</tspan><tspan x="194.51" y="0" style="letter-spacing:0.00195312669331524em">e</tspan><tspan x="200.5" y="0">sss</tspan><tspan x="216.25" y="0" style="letter-spacing:0.005060373705407667em">p</tspan><tspan x="222.61" y="0" style="letter-spacing:0.00195312669331524em">e</tspan><tspan x="228.61" y="0" style="letter-spacing:-0.00195312669331524em">z</tspan><tspan x="233.49" y="0" style="letter-spacing:-0.003995031872690264em">ifi</tspan><tspan x="242.08" y="0" style="letter-spacing:-0.00008877848605978365em">s</tspan><tspan x="247.33" y="0" style="letter-spacing:0.003995031872690264em">c</tspan><tspan x="252.83" y="0" style="letter-spacing:0.005060373705407667em">h</tspan><tspan x="259.08" y="0" style="letter-spacing:0.0020419051793750236em">e</tspan><tspan x="265.07" y="0" style="letter-spacing:-0.003995031872690264em">r</tspan><tspan x="268.96" y="0" xml:space="preserve" style="letter-spacing:0.0020419051793750236em">  </tspan><tspan x="274.19" y="0" style="letter-spacing:0.00097656334665762em">P</tspan><tspan x="280.81" y="0" style="letter-spacing:-0.0020419051793750236em">l</tspan><tspan x="283.7" y="0" style="letter-spacing:-0.003995031872690264em">a</tspan><tspan x="289.45" y="0" style="letter-spacing:-0.004971595219347884em">tt</tspan><tspan x="296.71" y="0" style="letter-spacing:-0.00195312669331524em">f</tspan><tspan x="300.08" y="0" style="letter-spacing:-0.003995031872690264em">or</tspan><tspan x="309.97" y="0" style="letter-spacing:0.00008877848605978365em">m</tspan><tspan x="319.61" y="0" style="letter-spacing:0.00195312669331524em">e</tspan><tspan x="325.6" y="0" style="letter-spacing:0.005060373705407667em">n</tspan><tspan x="331.85" y="0" style="letter-spacing:0.00097656334665762em">,</tspan><tspan x="334.72" y="0" style="letter-spacing:0.0020419051793750236em"> </tspan><tspan x="337.34" y="0" style="letter-spacing:0.005060373705407667em">En</tspan><tspan x="349.96" y="0" style="letter-spacing:0.00008877848605978365em">d-to-End</tspan></text><text transform="translate(478.52 360.72)" style="font-size:10.999990463256836px;font-family:IBMPlexSans-Light, IBM Plex Sans;font-weight:300;letter-spacing:0.003995031872690264em">Digitalisierung, Abbildung von Risiko-, Vertrags- und Schadenregeln</text></g><g id="anim3a"><line x1="59.71" y1="147.61" x2="229.67" y2="329.25" style="fill:#00b8ea"/><line x1="59.71" y1="147.61" x2="229.67" y2="329.25" style="fill:none;stroke:#a1aebd;stroke-linejoin:round;stroke-width:0.5px"/><line x1="229.67" y1="329.14" x2="648.87" y2="329.14" style="fill:#00b8ea"/><line x1="229.67" y1="329.14" x2="648.87" y2="329.14" style="fill:none;stroke:#a1aebd;stroke-linejoin:round;stroke-width:0.5px"/></g></svg>